<svg xmlns="http://www.w3.org/2000/svg" width="16" height="16" viewBox="0 0 32.713 28.922"> 
    <g id="Grupo_6725" data-name="Grupo 6725" transform="translate(-1638.314 -3208.842)"> 
        <path id="Path_2899" data-name="Path 2899" d="M1670.359,3230.521l-11.565-19.338a4.8,4.8,0,0,0-8.25,0l-11.555,19.338a4.79,4.79,0,0,0-.039,4.833,4.732,4.732,0,0,0,4.164,2.409h23.111a4.732,4.732,0,0,0,4.164-2.409A4.79,4.79,0,0,0,1670.359,3230.521Z" transform="translate(0 0)" fill="#e30613"/> 
        <g id="Grupo_6366" data-name="Grupo 6366" transform="translate(1638.781 3220.503)"> 
            <path id="Trazado_2728" data-name="Trazado 2728" d="M1641.784,3311.93h10.174a2.038,2.038,0,0,0,4.064,0h2.114c.507,0,.932-.223.932-.847V3308.6a1.28,1.28,0,0,0-1.217-1.3l-3.861-.878-1.946-3.073a1.723,1.723,0,0,0-1.467-.932h-3.135l-5.451,9.122C1641.916,3311.666,1641.847,3311.8,1641.784,3311.93Zm12.179-1.248a1.072,1.072,0,0,1,1.073,1.073,1.093,1.093,0,0,1-1.073,1.1,1.119,1.119,0,0,1-1.1-1.1A1.1,1.1,0,0,1,1653.963,3310.682Zm-6.767-7.079h2.7a1.252,1.252,0,0,1,1.131.737l1.265,2.11h0v0l0,0h-5.1Z" transform="translate(-1641.784 -3301.521)" fill="#fff"/> 
            <path id="Trazado_2729" data-name="Trazado 2729" d="M1766.035,3303.63a.293.293,0,0,0,.435.081.351.351,0,0,0,.094-.432l-1.32-2.623c-.079-.1-.127-.184-.18-.21a.218.218,0,0,0-.2.023l-.366.233a.1.1,0,0,0-.061.062c-.048.1-.014.215.116.339Z" transform="translate(-1747.958 -3299.802)" fill="#fff"/> 
            <path id="Trazado_2730" data-name="Trazado 2730" d="M1798.885,3311.514l-3.043-5.089h-6.684l.932-2.114c.281-.507.507-.706.959-.733h2.988l.147.076-.755-1.263-2.832,0a1.807,1.807,0,0,0-1.466.932l-2.114,4.177a2.447,2.447,0,0,0-.254,1.158v2.395c0,.476.117.846.9.846h1.069a2.056,2.056,0,0,0,2.032,1.888,2.009,2.009,0,0,0,2-1.888h6.315C1799.027,3311.768,1798.959,3311.64,1798.885,3311.514Zm-8.116,1.315a1.119,1.119,0,0,1-1.1-1.1,1.1,1.1,0,0,1,1.1-1.073,1.072,1.072,0,0,1,1.072,1.073A1.093,1.093,0,0,1,1790.769,3312.83Z" transform="translate(-1767.306 -3301.497)" fill="#fff"/> 
            <path id="Trazado_2731" data-name="Trazado 2731" d="M1781.035,3295.787a.1.1,0,0,0-.082.029c-.086.067-.107.187-.045.356l.219,2.921a.293.293,0,0,0,.355.264h0a.351.351,0,0,0,.275-.346l-.031-2.936a.984.984,0,0,0-.069-.267.219.219,0,0,0-.192-.069Z" transform="translate(-1762.207 -3295.739)" fill="#fff"/> 
            <path id="Trazado_2732" data-name="Trazado 2732" d="M1752.549,3312.91l2.443,1.617a.293.293,0,0,0,.426-.119h0a.351.351,0,0,0-.105-.43l-2.339-1.774a.98.98,0,0,0-.253-.11.218.218,0,0,0-.172.11l-.226.37a.1.1,0,0,0-.027.082C1752.3,3312.766,1752.378,3312.855,1752.549,3312.91Z" transform="translate(-1737.465 -3309.9)" fill="#fff"/> 
        </g>
    </g>
</svg>