<svg id="Grupo_6670" data-name="Grupo 6670" xmlns="http://www.w3.org/2000/svg" width="18.261" height="17.622" viewBox="0 0 18.261 17.622">
    <path id="Trazado_442" data-name="Trazado 442" d="M91.169,17.622H81.594A1.1,1.1,0,0,1,80.5,16.527V1.095A1.091,1.091,0,0,1,81.594,0H94.069a1.1,1.1,0,0,1,1.095,1.095V13.632h-3.99v3.99h0Z" transform="translate(-76.903)" fill="#e0e7ec"/>
    <path id="Trazado_443" data-name="Trazado 443" d="M319.3,309.09V305.1h3.99Z" transform="translate(-305.034 -291.468)" fill="#929da9"/>
    <g id="Grupo_327" data-name="Grupo 327" transform="translate(5.692 2.194)">
        <rect id="Rectángulo_79" data-name="Rectángulo 79" width="10.464" height="1.26" fill="#fff"/>
        <rect id="Rectángulo_80" data-name="Rectángulo 80" width="10.464" height="1.26" transform="translate(0 2.65)" fill="#fff"/>
        <rect id="Rectángulo_81" data-name="Rectángulo 81" width="10.464" height="1.26" transform="translate(0 5.308)" fill="#fff"/>
        <rect id="Rectángulo_82" data-name="Rectángulo 82" width="5.732" height="1.26" transform="translate(4.736 7.957)" fill="#fff"/>
    </g>
    <rect id="Rectángulo_83" data-name="Rectángulo 83" width="9.048" height="4.704" transform="translate(0 1.824)" fill="#20caff"/>
    <text id="JPEG" transform="translate(4.446 5.34)" fill="#fff" font-size="3" font-family="OpenSans, Open Sans"><tspan x="-3.23" y="0">JPEG</tspan></text>
</svg>
