<svg xmlns="http://www.w3.org/2000/svg" width="12.997" height="12.998" viewBox="0 0 12.997 12.998">
    <g id="flechitas" transform="translate(-1572.743 -1235.069)">
        <g id="Grupo_6745" data-name="Grupo 6745" transform="translate(1572.743 1235.069)">
            <path id="Trazado_3024" data-name="Trazado 3024" d="M1572.93,1247.877h0a.646.646,0,0,1,0-.912l5.391-5.4-5.391-5.4a.646.646,0,0,1,0-.912h0a.642.642,0,0,1,.909,0l6.3,6.311-6.3,6.31A.642.642,0,0,1,1572.93,1247.877Z" transform="translate(-1572.742 -1235.068)"/>
        </g>
        <g id="Grupo_6746" data-name="Grupo 6746" transform="translate(1578.34 1235.069)">
            <path id="Trazado_3025" data-name="Trazado 3025" d="M1589.271,1247.877h0a.646.646,0,0,1,0-.912l5.391-5.4-5.391-5.4a.646.646,0,0,1,0-.912h0a.642.642,0,0,1,.909,0l6.3,6.311-6.3,6.31A.642.642,0,0,1,1589.271,1247.877Z" transform="translate(-1589.083 -1235.068)"/>
        </g>
    </g>
</svg>
