<svg xmlns="http://www.w3.org/2000/svg" viewBox="0 0 103.9842 104.0344"><title>Ativo 35</title><circle cx="51.9921" cy="51.9921" r="51.9921" fill="#009ee2"/><path d="M55.2709,21.5463,31.851,26.23l-4.684,1.8736L25.9185,43.7258l2.6651,16.36L25.2935,75.88l2.81,4.684v2.81l22.4831,20.6095a35.8,35.8,0,0,0,3.7472,0c25.2935-.9368,47.34-20.9487,49.65-46.84L76.8172,27.1671" opacity="0.2"/><path d="M25.1674,40.8826V74.9779a1.2291,1.2291,0,0,0,1.1447,1.2989h1.7769v6.6611A1.3669,1.3669,0,0,0,29.6,84.0828h5.1552a1.3668,1.3668,0,0,0,1.5111-1.1449V76.2768H67.7178v6.6611a1.3668,1.3668,0,0,0,1.5111,1.1449h5.1552a1.3669,1.3669,0,0,0,1.5112-1.1449V76.2768H77.672a1.2291,1.2291,0,0,0,1.1449-1.2989V40.8826l-.6195-11.4578-.0006-.0148.0006-.0188c0-5.2411-11.7325-9.49-26.2055-9.49s-26.2051,4.2487-26.2051,9.49l.0006.0125-.0006.0161ZM60.975,27.0249c0,.3769-.4766.6823-1.0643.6823H44.0735c-.5877,0-1.0643-.3054-1.0643-.6823v-2.476c0-.3769.4766-.6825,1.0643-.6825H59.9108c.5877,0,1.0643.3057,1.0643.6825Zm5.5486,37.2434a3.9072,3.9072,0,1,1,3.9071,3.9071A3.9072,3.9072,0,0,1,66.5236,64.2683ZM52.4658,33.3325H70.9286a1.2434,1.2434,0,0,1,1.12,1.3375l2.0278,17.14a1.0762,1.0762,0,0,1,.029.2461l-.029-.2461a1.2177,1.2177,0,0,0-1.2055-.9025H52.4658Zm-.9473,17.5749H31.1135a1.2177,1.2177,0,0,0-1.2055.9025l-.029.2461a1.0645,1.0645,0,0,1,.029-.2461l2.0278-17.14a1.2433,1.2433,0,0,1,1.12-1.3375H51.5185ZM29.6463,64.2683a3.9072,3.9072,0,1,1,3.9071,3.9071A3.9071,3.9071,0,0,1,29.6463,64.2683Z" fill="#fff"/><path d="M26.23,79.6276"/><circle cx="62.781" cy="41.6201" r="3.3284" fill="#fff"/><path d="M62.7811,45.5314a6.6656,6.6656,0,0,1,6.484,4.4929,46.34,46.34,0,0,0-12.9681,0A6.6657,6.6657,0,0,1,62.7811,45.5314Z" fill="#fff"/></svg>