<svg xmlns="http://www.w3.org/2000/svg" width="565" height="155" viewBox="0 0 565 155">
  <g id="Grupo_8370" data-name="Grupo 8370" transform="translate(-623 -664)">
    <g id="Grupo_6575" data-name="Grupo 6575" transform="translate(7126.99 3325.584)">
      <rect id="Rectángulo_1425" data-name="Rectángulo 1425" width="5.304" height="1.288" transform="translate(-6248.436 -2581.051)" fill="#009fe3"/>
      <rect id="Rectángulo_1426" data-name="Rectángulo 1426" width="5.304" height="1.288" transform="translate(-6256.771 -2581.051)" fill="#009fe3"/>
      <path id="Trazado_2957" data-name="Trazado 2957" d="M-6259.8-2110.781h-4.371V-2113h1.288v.933h3.083Z" transform="translate(0 -468.981)" fill="#009fe3"/>
      <rect id="Rectángulo_1427" data-name="Rectángulo 1427" width="1.288" height="5.304" transform="translate(-6264.173 -2590.319)" fill="#009fe3"/>
      <rect id="Rectángulo_1428" data-name="Rectángulo 1428" width="1.288" height="5.304" transform="translate(-6264.173 -2598.654)" fill="#009fe3"/>
      <rect id="Rectángulo_1429" data-name="Rectángulo 1429" width="1.288" height="5.304" transform="translate(-6202.099 -2599.947)" fill="#009fe3"/>
      <rect id="Rectángulo_1430" data-name="Rectángulo 1430" width="1.288" height="5.304" transform="translate(-6264.173 -2606.99)" fill="#009fe3"/>
      <rect id="Rectángulo_1431" data-name="Rectángulo 1431" width="1.288" height="5.304" transform="translate(-6202.099 -2608.282)" fill="#009fe3"/>
      <rect id="Rectángulo_1432" data-name="Rectángulo 1432" width="1.288" height="5.304" transform="translate(-6264.173 -2615.325)" fill="#009fe3"/>
      <rect id="Rectángulo_1433" data-name="Rectángulo 1433" width="1.288" height="5.304" transform="translate(-6202.099 -2616.617)" fill="#009fe3"/>
      <path id="Trazado_2958" data-name="Trazado 2958" d="M-6262.885-2618.356h-1.288v-2.079h4.514v1.288h-3.226Z" fill="#009fe3"/>
      <path id="Trazado_2959" data-name="Trazado 2959" d="M-5499.443-2619.146h-5.162v-1.288h5.806v.787h-.644Z" transform="translate(-702.011)" fill="#009fe3"/>
      <rect id="Rectángulo_1434" data-name="Rectángulo 1434" width="5.304" height="1.288" transform="translate(-6214.952 -2620.435)" fill="#009fe3"/>
      <rect id="Rectángulo_1435" data-name="Rectángulo 1435" width="5.304" height="1.288" transform="translate(-6223.287 -2620.435)" fill="#009fe3"/>
      <rect id="Rectángulo_1436" data-name="Rectángulo 1436" width="5.304" height="1.288" transform="translate(-6231.622 -2620.435)" fill="#009fe3"/>
      <rect id="Rectángulo_1437" data-name="Rectángulo 1437" width="5.304" height="1.288" transform="translate(-6239.958 -2620.435)" fill="#009fe3"/>
      <rect id="Rectángulo_1438" data-name="Rectángulo 1438" width="5.304" height="1.288" transform="translate(-6248.292 -2620.435)" fill="#009fe3"/>
      <rect id="Rectángulo_1439" data-name="Rectángulo 1439" width="5.304" height="1.288" transform="translate(-6256.628 -2620.435)" fill="#009fe3"/>
      <g id="Grupo_6572" data-name="Grupo 6572" transform="translate(-6240.1 -2581.051)">
        <rect id="Rectángulo_1440" data-name="Rectángulo 1440" width="2.022" height="1.288" transform="translate(0 0)" fill="#009fe3"/>
      </g>
      <g id="Grupo_6574" data-name="Grupo 6574" transform="translate(-6204.951 -2572.405)">
        <g id="Grupo_6573" data-name="Grupo 6573" transform="translate(0 0)">
          <path id="Trazado_2960" data-name="Trazado 2960" d="M-5465.12-1956.657A4.241,4.241,0,0,1-5470-1958.2a15.193,15.193,0,0,0-4.377-3.94,7.594,7.594,0,0,1-2.551-2.157l-.019-.026a10.2,10.2,0,0,0-.664-.776l-.007-.008c-.219-.24-.444-.489-.641-.734a16.82,16.82,0,0,0-3.134-3.044,2.749,2.749,0,0,1-1.21-1.841,2.82,2.82,0,0,1,.663-2.19,3.815,3.815,0,0,1,2.229-1.31l.017,0a5.51,5.51,0,0,1,3.363.663,5.629,5.629,0,0,1,1.225.881l-2.128-9.895a3.263,3.263,0,0,1,2.122-3.845l.023-.008.08-.025a3.3,3.3,0,0,1,4,2.015l2.466,6.363a20.991,20.991,0,0,1,9.558,2.79l.076.048a2.793,2.793,0,0,1,1.269,1.973,26.048,26.048,0,0,1,.405,7.529,7.6,7.6,0,0,0-.011,1.655,8.072,8.072,0,0,0,.138.891l.136.631a2.994,2.994,0,0,1-.191,1.862,3.079,3.079,0,0,1-1.528,1.555l-.1.044L-5465-1956.7Zm-10.464-8.648.008.01a6.009,6.009,0,0,0,2.017,1.688,16.664,16.664,0,0,1,4.934,4.442,2.57,2.57,0,0,0,3.023.9l6.228-2.415a1.408,1.408,0,0,0,.688-.706,1.342,1.342,0,0,0,.087-.831l-.136-.636a9.562,9.562,0,0,1-.168-1.078,9.379,9.379,0,0,1,.015-2.016,24.384,24.384,0,0,0-.394-7.047l-.009-.058a1.141,1.141,0,0,0-.53-.8l-.022-.014a19.335,19.335,0,0,0-9.283-2.566l-.564-.008-2.869-7.405a1.635,1.635,0,0,0-1.968-1.016l-.022.007h0a1.576,1.576,0,0,0-1.039,1.908l2.406,11.182,0,.042a3.747,3.747,0,0,1,0,1.168l0,.013c-.008.033-.015.065-.021.1l-.311,1.342-1.047-.894c-.247-.21-.527-.458-.815-.715a11.378,11.378,0,0,0-1.661-1.35l-.029-.014a3.893,3.893,0,0,0-2.361-.509h-.009a2.18,2.18,0,0,0-1.177.69,1.211,1.211,0,0,0-.327.913,1.107,1.107,0,0,0,.523.724l.009.006a18.452,18.452,0,0,1,3.458,3.35c.168.21.376.439.577.66l-.611.57.618-.563A11.112,11.112,0,0,1-5475.584-1965.3Z" transform="translate(5482.623 1986.593)" fill="#009fe3"/>
        </g>
      </g>
      <path id="Trazado_2961" data-name="Trazado 2961" d="M-5877.965-2262.47h-40.551v-33.744h53.186v33.744h-1.158a17.144,17.144,0,0,1,2.446,1.174V-2297.5H-5919.8v36.321h42.116Z" transform="translate(-318.275 -298.461)" fill="#009fe3"/>
    </g>
    <g id="Rectangle_1424" data-name="Rectangle 1424" transform="translate(623 664)" fill="none" stroke="#009fe3" stroke-width="1" stroke-dasharray="10 10">
      <rect width="565" height="155" stroke="none"/>
      <rect x="0.5" y="0.5" width="564" height="154" fill="none"/>
    </g>
  </g>
</svg>
