<svg xmlns="http://www.w3.org/2000/svg" width="14.022" height="15.98" viewBox="0 0 14.022 15.98">
    <g id="Grupo_6577" data-name="Grupo 6577" transform="translate(-27.871)">
        <path id="Trazado_2962" data-name="Trazado 2962" d="M94.682,38.186H94.66a1.246,1.246,0,0,0-.82.3,1.311,1.311,0,0,0-1.208-.862,1.264,1.264,0,0,0-.884.372,1.287,1.287,0,0,0-1.141-.709h-.024a1.133,1.133,0,0,0-.71.216V34.456a1.308,1.308,0,1,0-2.612,0l-.006,6.068-.311-.378a1.769,1.769,0,0,0-1.249-.656,1.741,1.741,0,0,0-1.3.461l-.3.25a.288.288,0,0,0-.072.355l2.932,5.634a3.041,3.041,0,0,0,2.68,1.682h3.288a3.172,3.172,0,0,0,3.063-3.258c0-.8,0-1.389,0-1.87,0-1.293,0-1.769,0-3.194A1.333,1.333,0,0,0,94.682,38.186Zm.726,4.553c0,.481,0,1.076,0,1.871a2.6,2.6,0,0,1-2.487,2.683H89.63a2.467,2.467,0,0,1-2.169-1.371l-2.825-5.427.127-.106.011-.01a1.17,1.17,0,0,1,.879-.316,1.2,1.2,0,0,1,.844.447l.82,1a.288.288,0,0,0,.51-.183l0-6.872a.734.734,0,1,1,1.464,0V38.6c0,.015,0,.029,0,.044s0,.013,0,.02v1.771a.288.288,0,1,0,.576,0V38.608a.723.723,0,0,1,.71-.746h.024a.763.763,0,0,1,.742.78v1.621a.288.288,0,0,0,.576,0V38.992a.724.724,0,1,1,1.44,0v1.2a.288.288,0,0,0,.576,0v-.65a.744.744,0,0,1,.718-.78h.023a.756.756,0,0,1,.725.786C95.41,40.971,95.409,41.446,95.408,42.739Z" transform="translate(-54.092 -31.89)"/>
        <path id="Trazado_2963" data-name="Trazado 2963" d="M30.389,13.437a.288.288,0,0,0-.407,0l-.5.5V7.2a.288.288,0,0,0-.576,0v6.779l-.544-.545a.288.288,0,1,0-.407.407l1.013,1.013a.288.288,0,0,0,.407,0l1.013-1.013A.288.288,0,0,0,30.389,13.437Z" transform="translate(0 -6.666)"/>
        <path id="Trazado_2964" data-name="Trazado 2964" d="M144.306,2.414a1.838,1.838,0,0,1,3.675,0,.288.288,0,1,0,.576,0,2.414,2.414,0,1,0-4.827,0,.288.288,0,1,0,.576,0Z" transform="translate(-111.68)"/>
    </g>
</svg>
