<svg xmlns="http://www.w3.org/2000/svg" width="16" height="16" viewBox="0 0 16 16">
    <g id="Grupo_6691" data-name="Grupo 6691" transform="translate(-1036 -515)">
        <path id="Trazado_2987" data-name="Trazado 2987" d="M3168.327-516.754a8.009,8.009,0,0,0-8,8,8.009,8.009,0,0,0,8,8,8.009,8.009,0,0,0,8-8A8.009,8.009,0,0,0,3168.327-516.754Zm0,15.015a7.023,7.023,0,0,1-7.016-7.015,7.023,7.023,0,0,1,7.016-7.015,7.024,7.024,0,0,1,7.016,7.015A7.024,7.024,0,0,1,3168.327-501.739Z" transform="translate(-2124.327 1031.754)" fill="#e84b4b"/>
        <path id="Trazado_3022" data-name="Trazado 3022" d="M1612.407,1177.565l-.624-.623-3.526,3.527-3.527-3.527-.623.623,3.526,3.527-3.526,3.527.623.623,3.527-3.527,3.526,3.527.624-.623-3.527-3.527Z" transform="translate(-564.108 -657.942)" fill="#e84b4b"/>
    </g>
</svg>
