<svg xmlns="http://www.w3.org/2000/svg" width="28" height="25.052" viewBox="0 0 28 25.052">
    <g id="Grupo_8031" data-name="Grupo 8031" transform="translate(4 -26.951)">
        <g id="Grupo_6582" data-name="Grupo 6582" transform="translate(-4 26.951)">
            <g id="Grupo_6581" data-name="Grupo 6581" transform="translate(0 0)">
                <g id="Grupo_6580" data-name="Grupo 6580">
                    <path id="Trazado_2966" data-name="Trazado 2966" d="M27.927,43.733,24.973,38.58a.547.547,0,0,0-.475-.275H19.867V34.417a.547.547,0,0,0-.547-.547H17.345a.547.547,0,1,0,0,1.094h1.428v13.32H9.49a2.3,2.3,0,0,0-3.615,0H4.042V46.261h10.9a.547.547,0,1,0,0-1.094H4.042V40.3a7.018,7.018,0,1,0-1.094-.639V48.83a.547.547,0,0,0,.547.547H5.406a2.3,2.3,0,1,0,4.553,0H21.475a2.3,2.3,0,1,0,4.553,0h1.424A.547.547,0,0,0,28,48.83V44A.547.547,0,0,0,27.927,43.733ZM1.094,33.952a5.912,5.912,0,1,1,2.721,4.972l-.04-.026A5.907,5.907,0,0,1,1.094,33.952ZM7.682,50.909A1.206,1.206,0,1,1,8.889,49.7,1.207,1.207,0,0,1,7.682,50.909Zm18.826-7.451h-4.2V39.4h1.871Zm-2.757,7.451A1.206,1.206,0,1,1,24.958,49.7,1.207,1.207,0,0,1,23.752,50.909Zm1.808-2.626a2.3,2.3,0,0,0-3.633.023.545.545,0,0,0-.156-.023h-1.9V39.4h1.35V44a.547.547,0,0,0,.547.547h5.142v.465h-.388a.547.547,0,0,0,0,1.094h.388v2.173Z" transform="translate(0 -26.951)"/>
                    <path id="Trazado_2967" data-name="Trazado 2967" d="M272.1,154.563a.547.547,0,1,0-.387-.16A.551.551,0,0,0,272.1,154.563Z" transform="translate(-256.707 -146.55)"/>
                    <path id="Trazado_2968" data-name="Trazado 2968" d="M303.833,361.136a.546.546,0,1,0-.387-.16A.551.551,0,0,0,303.833,361.136Z" transform="translate(-286.7 -341.826)"/>
                    <path id="Trazado_2969" data-name="Trazado 2969" d="M118.476,223.045a.547.547,0,0,0,.547-.547v-.4a.547.547,0,1,0-1.094,0v.4A.547.547,0,0,0,118.476,223.045Z" transform="translate(-111.48 -210.912)"/>
                    <path id="Trazado_2970" data-name="Trazado 2970" d="M118.668,62.624a.547.547,0,0,0,.547-.547v-.4a.547.547,0,1,0-1.094,0v.4A.547.547,0,0,0,118.668,62.624Z" transform="translate(-111.661 -59.264)"/>
                    <path id="Trazado_2971" data-name="Trazado 2971" d="M35.126,144.881h-.4a.547.547,0,1,0,0,1.094h.4a.547.547,0,0,0,0-1.094Z" transform="translate(-32.313 -138.432)"/>
                    <path id="Trazado_2972" data-name="Trazado 2972" d="M118.572,115.792h4.17a.547.547,0,1,0,0-1.094h-3.623v-1.2a.547.547,0,1,0-1.094,0v1.752A.547.547,0,0,0,118.572,115.792Z" transform="translate(-111.571 -108.243)"/>
                </g>
            </g>
        </g>
    </g>
</svg>
