<svg xmlns="http://www.w3.org/2000/svg" width="16" height="16" viewBox="0 0 16 16">
    <g id="Grupo_6633" data-name="Grupo 6633" transform="translate(-3160.327 516.754)">
        <g id="Grupo_6632" data-name="Grupo 6632" transform="translate(3160.327 -516.754)">
            <path id="Trazado_2987" data-name="Trazado 2987" d="M3168.327-516.754a8.009,8.009,0,0,0-8,8,8.009,8.009,0,0,0,8,8,8.009,8.009,0,0,0,8-8A8.009,8.009,0,0,0,3168.327-516.754Zm0,15.015a7.023,7.023,0,0,1-7.016-7.015,7.023,7.023,0,0,1,7.016-7.015,7.024,7.024,0,0,1,7.016,7.015A7.024,7.024,0,0,1,3168.327-501.739Z" transform="translate(-3160.327 516.754)" fill="#929da9"/>
            <circle id="Elipse_105" data-name="Elipse 105" cx="0.83" cy="0.83" r="0.83" transform="translate(7.297 3.983)" fill="#929da9"/>
            <path id="Trazado_2988" data-name="Trazado 2988" d="M3282.888-401.96a.5.5,0,0,0-.5.5v4.221a.5.5,0,0,0,.5.5.5.5,0,0,0,.5-.5v-4.221A.5.5,0,0,0,3282.888-401.96Z" transform="translate(-3274.977 408.908)" fill="#929da9"/>
        </g>
    </g>
</svg>
