<svg xmlns="http://www.w3.org/2000/svg" xmlns:xlink="http://www.w3.org/1999/xlink" width="43" height="43" viewBox="0 0 32.5 32.5">
    <defs>
        <filter id="Elipse_90" x="1.5" y="1.5" width="31" height="31" filterUnits="userSpaceOnUse">
            <feOffset dx="1" dy="1" input="SourceAlpha"/>
            <feGaussianBlur stdDeviation="1.5" result="blur"/>
            <feFlood flood-opacity="0.161"/>
            <feComposite operator="in" in2="blur"/>
            <feComposite in="SourceGraphic"/>
        </filter>
    </defs>
    <g id="Grupo_6526" data-name="Grupo 6526" transform="translate(-989 -477)">
        <circle id="Elipse_95" data-name="Elipse 95" cx="16" cy="16" r="16" transform="translate(989 477)" fill="#61b0ff" opacity="0.28"/>
        <g transform="matrix(1, 0, 0, 1, 989, 477)" filter="url(#Elipse_90)">
            <circle id="Elipse_90-2" data-name="Elipse 90" cx="11" cy="11" r="11" transform="translate(5 5)" fill="#fff"/>
        </g>
        <g id="Grupo_6521" data-name="Grupo 6521" transform="translate(998.652 488.333)">
            <g id="Grupo_6396" data-name="Grupo 6396" transform="translate(0.345 0)">
                <path id="Trazado_2826" data-name="Trazado 2826" d="M9.14,33.662a1.1,1.1,0,0,0-.795-.364,1.133,1.133,0,0,0-.8.362L6.8,34.4c-.061-.033-.122-.063-.181-.094-.085-.042-.165-.082-.233-.125A8.075,8.075,0,0,1,4.45,32.418a4.764,4.764,0,0,1-.635-1c.193-.176.371-.36.545-.536l.2-.2a1.079,1.079,0,0,0,0-1.627l-.642-.642c-.073-.073-.148-.148-.219-.223-.141-.146-.289-.3-.442-.437a1.113,1.113,0,0,0-.788-.346,1.152,1.152,0,0,0-.8.346l0,0-.8.806a1.72,1.72,0,0,0-.51,1.093,4.121,4.121,0,0,0,.3,1.744,10.123,10.123,0,0,0,1.8,3,11.064,11.064,0,0,0,3.684,2.885,5.74,5.74,0,0,0,2.069.611c.049,0,.1,0,.148,0a1.772,1.772,0,0,0,1.357-.583s.007-.007.009-.012a5.344,5.344,0,0,1,.411-.426c.1-.1.2-.2.306-.3a1.173,1.173,0,0,0,.355-.813,1.13,1.13,0,0,0-.362-.806Zm.842,2.476s0,0,0,0c-.092.1-.186.188-.287.287a6.182,6.182,0,0,0-.454.47,1.133,1.133,0,0,1-.884.374c-.035,0-.073,0-.108,0a5.1,5.1,0,0,1-1.834-.55A10.443,10.443,0,0,1,2.945,34a9.545,9.545,0,0,1-1.693-2.819,3.357,3.357,0,0,1-.263-1.472,1.079,1.079,0,0,1,.324-.7l.8-.8a.534.534,0,0,1,.357-.167.5.5,0,0,1,.343.165l.007.007c.143.134.28.273.423.421l.223.228.642.642a.449.449,0,0,1,0,.729c-.068.068-.134.136-.2.2-.2.2-.386.39-.59.574,0,0-.009.007-.012.012a.48.48,0,0,0-.122.534l.007.021a5.153,5.153,0,0,0,.759,1.239l0,0a8.629,8.629,0,0,0,2.088,1.9,3.211,3.211,0,0,0,.289.158c.085.042.165.082.233.125l.028.016a.51.51,0,0,0,.233.059.5.5,0,0,0,.357-.162l.8-.8a.532.532,0,0,1,.355-.176.479.479,0,0,1,.339.172l0,0,1.3,1.3A.465.465,0,0,1,9.982,36.138Z" transform="translate(-0.345 -26.762)"/>
                <path id="Trazado_2827" data-name="Trazado 2827" d="M245.205,86.555a3.026,3.026,0,0,1,2.464,2.464.315.315,0,0,0,.313.263.418.418,0,0,0,.054,0,.318.318,0,0,0,.261-.367,3.659,3.659,0,0,0-2.981-2.981.319.319,0,0,0-.367.259A.314.314,0,0,0,245.205,86.555Z" transform="translate(-239.193 -83.905)"/>
                <path id="Trazado_2828" data-name="Trazado 2828" d="M254.053,4.914A6.024,6.024,0,0,0,249.144.005a.317.317,0,1,0-.1.625,5.381,5.381,0,0,1,4.387,4.387.315.315,0,0,0,.313.263.42.42,0,0,0,.054,0A.311.311,0,0,0,254.053,4.914Z" transform="translate(-242.935 0)"/>
            </g>
        </g>
    </g>
</svg>
