<svg xmlns="http://www.w3.org/2000/svg" xmlns:xlink="http://www.w3.org/1999/xlink" width="43" height="43" viewBox="0 0 32.5 32.5">
    <defs>
        <filter id="Elipse_91" x="1.5" y="1.5" width="31" height="31" filterUnits="userSpaceOnUse">
            <feOffset dx="1" dy="1" input="SourceAlpha"/>
            <feGaussianBlur stdDeviation="1.5" result="blur"/>
            <feFlood flood-opacity="0.161"/>
            <feComposite operator="in" in2="blur"/>
            <feComposite in="SourceGraphic"/>
        </filter>
    </defs>
    <g id="Grupo_6528" data-name="Grupo 6528" transform="translate(-956 -447)">
        <circle id="Elipse_97" data-name="Elipse 97" cx="16" cy="16" r="16" transform="translate(956 447)" fill="#61b0ff" opacity="0.28"/>
        <g transform="matrix(1, 0, 0, 1, 956, 447)" filter="url(#Elipse_91)">
            <circle id="Elipse_91-2" data-name="Elipse 91" cx="11" cy="11" r="11" transform="translate(5 5)" fill="#fff"/>
        </g>
        <g id="Grupo_6523" data-name="Grupo 6523" transform="translate(966.064 456.345)">
            <path id="Trazado_358" data-name="Trazado 358" d="M1.046,21.139a3.319,3.319,0,0,1,5.005,0,4.047,4.047,0,0,1,0,5.376l-2.5,2.741-2.5-2.741a4.047,4.047,0,0,1,0-5.376Zm.442,4.984L3.549,28.4,5.61,26.123a3.473,3.473,0,0,0,0-4.628,2.757,2.757,0,0,0-4.122,0,3.473,3.473,0,0,0,0,4.628Zm0,0" transform="translate(2.434 -20)"/>
            <path id="Trazado_363" data-name="Trazado 363" d="M11.894,46.4h.589a.294.294,0,0,1,0,.589h-.589a.317.317,0,0,1-.294-.294.29.29,0,0,1,.294-.294Zm0,0" transform="translate(-1.443 -36.644)"/>
            <path id="Trazado_2538" data-name="Trazado 2538" d="M11.894,46.4h.589a.294.294,0,0,1,0,.589h-.589a.317.317,0,0,1-.294-.294.29.29,0,0,1,.294-.294Zm0,0" transform="translate(0.393 -36.644)"/>
            <path id="Trazado_373" data-name="Trazado 373" d="M31.094,46.4h.589a.294.294,0,0,1,0,.589h-.589a.317.317,0,0,1-.294-.294.29.29,0,0,1,.294-.294Zm0,0" transform="translate(-28.514 -36.644)"/>
            <path id="Trazado_374" data-name="Trazado 374" d="M26.294,46.4h.589a.294.294,0,0,1,0,.589h-.589A.317.317,0,0,1,26,46.694a.29.29,0,0,1,.294-.294Zm0,0" transform="translate(-21.787 -36.644)"/>
            <path id="Trazado_377" data-name="Trazado 377" d="M35.994,46.4h.552a.294.294,0,0,1,0,.589h-.552v0a.294.294,0,0,1,0-.589Zm0,0" transform="translate(-35.511 -36.644)"/>
            <path id="Trazado_2539" data-name="Trazado 2539" d="M35.994,46.4h.552a.294.294,0,0,1,0,.589h-.552v0a.294.294,0,0,1,0-.589Zm0,0" transform="translate(-37.4 -36.644)"/>
            <path id="Trazado_381" data-name="Trazado 381" d="M16.694,46.4h.589a.294.294,0,0,1,0,.589h-.589a.317.317,0,0,1-.294-.294.29.29,0,0,1,.294-.294Zm0,0" transform="translate(-8.335 -36.644)"/>
            <path id="Trazado_384" data-name="Trazado 384" d="M21.494,46.4h.589a.294.294,0,0,1,0,.589h-.589a.317.317,0,0,1-.294-.294.29.29,0,0,1,.294-.294Zm0,0" transform="translate(-15.061 -36.644)"/>
            <path id="Trazado_387" data-name="Trazado 387" d="M6.567,24.8A1.767,1.767,0,1,1,4.8,26.567,1.791,1.791,0,0,1,6.567,24.8Zm0,2.944a1.178,1.178,0,1,0-1.178-1.178,1.163,1.163,0,0,0,1.178,1.178Zm0,0" transform="translate(-0.596 -22.774)"/>
        </g>
    </g>
</svg>
