<svg xmlns="http://www.w3.org/2000/svg" width="14" height="8" viewBox="0 0 14 8">
    <g id="Grupo_6631" data-name="Grupo 6631" transform="translate(0 -103.091)">
        <g id="Grupo_6616" data-name="Grupo 6616" transform="translate(0 103.091)">
            <g id="Grupo_6615" data-name="Grupo 6615" transform="translate(0 0)">
                <path id="Trazado_2978" data-name="Trazado 2978" d="M10.351,110.68H1.622a1.165,1.165,0,0,1-1.191-1.134v-4.911A1.165,1.165,0,0,1,1.622,103.5H2.953a.206.206,0,1,0,0-.411H1.622A1.587,1.587,0,0,0,0,104.635v4.911a1.587,1.587,0,0,0,1.622,1.544h8.729a.206.206,0,1,0,0-.411Z" transform="translate(0 -103.091)" fill="#929da9"/>
            </g>
        </g>
        <g id="Grupo_6618" data-name="Grupo 6618" transform="translate(1.539 105.775)">
            <g id="Grupo_6617" data-name="Grupo 6617" transform="translate(0 0)">
                <path id="Trazado_2979" data-name="Trazado 2979" d="M69.957,217.31h-.624l-.434,2.715h.392l.074-.493h.524l.074.493h.431Zm-.539,1.854.206-1.373.206,1.373Z" transform="translate(-68.898 -217.31)" fill="#929da9"/>
            </g>
        </g>
        <g id="Grupo_6620" data-name="Grupo 6620" transform="translate(3.447 105.775)">
            <g id="Grupo_6619" data-name="Grupo 6619" transform="translate(0 0)">
                <path id="Trazado_2980" data-name="Trazado 2980" d="M124.458,218.575a.533.533,0,0,0,.275-.547v-.1c0-.419-.19-.624-.632-.624h-.644v2.715h.671a.577.577,0,0,0,.648-.644v-.221A.549.549,0,0,0,124.458,218.575Zm-.574-.88h.206c.151,0,.217.085.217.279v.151c0,.217-.1.287-.256.287h-.167Zm.465,1.672c0,.2-.078.268-.221.268h-.244V218.8h.19c.194,0,.275.078.275.33v.237Z" transform="translate(-123.457 -217.307)" fill="#929da9"/>
            </g>
        </g>
        <g id="Grupo_6622" data-name="Grupo 6622" transform="translate(5.162 105.744)">
            <g id="Grupo_6621" data-name="Grupo 6621" transform="translate(0 0)">
                <path id="Trazado_2981" data-name="Trazado 2981" d="M174.8,217.334v-.264c0-.434-.217-.683-.636-.683s-.636.248-.636.683v1.412c0,.434.217.683.636.683s.636-.248.636-.683v-.361h-.4v.388c0,.194-.085.264-.221.264s-.221-.07-.221-.264v-1.466c0-.194.085-.268.221-.268s.221.074.221.268v.291Z" transform="translate(-173.527 -216.388)" fill="#929da9"/>
            </g>
        </g>
        <g id="Grupo_6624" data-name="Grupo 6624" transform="translate(6.839 106.939)">
            <g id="Grupo_6623" data-name="Grupo 6623" transform="translate(0 0)">
                <rect id="Rectángulo_1469" data-name="Rectángulo 1469" width="0.776" height="0.388" fill="#929da9"/>
            </g>
        </g>
        <g id="Grupo_6626" data-name="Grupo 6626" transform="translate(7.902 105.775)">
            <g id="Grupo_6625" data-name="Grupo 6625" transform="translate(0 0)">
                <path id="Trazado_2982" data-name="Trazado 2982" d="M311.541,217.309a.423.423,0,0,1-.469.341v.3h.33v2.071h.427v-2.715Z" transform="translate(-311.072 -217.309)" fill="#929da9"/>
            </g>
        </g>
        <g id="Grupo_6628" data-name="Grupo 6628" transform="translate(9.351 105.744)">
            <g id="Grupo_6627" data-name="Grupo 6627" transform="translate(0 0)">
                <path id="Trazado_2983" data-name="Trazado 2983" d="M353.629,218.746a.294.294,0,0,1,0-.058c0-.446.85-.764.85-1.617,0-.434-.217-.683-.636-.683s-.636.248-.636.683v.264h.4v-.291c0-.194.085-.268.221-.268s.221.066.221.31c0,.783-.846.915-.846,1.714v.334h1.233v-.388h-.807Z" transform="translate(-353.202 -216.388)" fill="#929da9"/>
            </g>
        </g>
        <g id="Grupo_6630" data-name="Grupo 6630" transform="translate(11.079 105.744)">
            <g id="Grupo_6629" data-name="Grupo 6629" transform="translate(0 0)">
                <path id="Trazado_2984" data-name="Trazado 2984" d="M403.737,217.14v-.07c0-.434-.217-.683-.636-.683s-.636.248-.636.683v.147h.4v-.174c0-.194.085-.268.221-.268s.221.066.221.31v.151c0,.217-.1.287-.256.287h-.167v.388h.143c.194,0,.279.093.279.345v.213c0,.24-.085.306-.221.306s-.221-.074-.221-.268v-.252h-.4v.225c0,.434.217.683.636.683s.636-.248.636-.683v-.213a.554.554,0,0,0-.3-.57A.529.529,0,0,0,403.737,217.14Z" transform="translate(-402.465 -216.388)" fill="#929da9"/>
            </g>
        </g>
        <path id="Trazado_2985" data-name="Trazado 2985" d="M20.17,103.091H11.579a.206.206,0,1,0,0,.411H20.17a1.172,1.172,0,0,1,1.171.958H8v.355H21.355v4.275H8v.355H21.355v.1a1.162,1.162,0,0,1-1.185,1.134H18.942a.205.205,0,1,0,0,.411H20.17a1.583,1.583,0,0,0,1.615-1.544v-4.911A1.583,1.583,0,0,0,20.17,103.091Z" transform="translate(-7.785 0)" fill="#929da9"/>
    </g>
</svg>
