<svg xmlns="http://www.w3.org/2000/svg" width="86.561" height="86.563" viewBox="0 0 86.561 86.563">
    <path id="Trazado_2976" data-name="Trazado 2976" d="M568.049,89.563a1.2,1.2,0,0,1-1.134-1.582L571.2,75.322a1.2,1.2,0,0,1,1.134-.813h.762V49.188a21.213,21.213,0,0,1,42.425,0V74.509h.762a1.2,1.2,0,0,1,1.134.813l4.29,12.659a1.2,1.2,0,0,1-1.134,1.582Zm1.67-2.395h49.188L615.429,76.9H573.2Zm24.594-56.8A18.839,18.839,0,0,0,575.5,49.189V74.509h37.635V49.189A18.839,18.839,0,0,0,594.313,30.371Zm0,39.519a4.619,4.619,0,1,1,4.619-4.619A4.624,4.624,0,0,1,594.313,69.89Zm0-6.843a2.224,2.224,0,1,0,2.224,2.224A2.227,2.227,0,0,0,594.313,63.047Zm0-6.843a4.624,4.624,0,0,1-4.619-4.619V43.374a4.619,4.619,0,1,1,9.238,0v8.211A4.624,4.624,0,0,1,594.313,56.2Zm0-15.054a2.227,2.227,0,0,0-2.224,2.224v8.211a2.224,2.224,0,1,0,4.448,0V43.374A2.227,2.227,0,0,0,594.313,41.151ZM636.4,51.185a1.2,1.2,0,1,1,.846-.351A1.206,1.206,0,0,1,636.4,51.185Zm-13.914,0a1.2,1.2,0,0,1,0-2.4h7.855a1.2,1.2,0,0,1,0,2.4Zm-63.481,0a1.2,1.2,0,0,1,0-2.4h7.855a1.2,1.2,0,1,1,0,2.4Zm-6.771,0a1.2,1.2,0,1,1,.847-.351A1.205,1.205,0,0,1,552.231,51.185Zm73.706-13.1a1.2,1.2,0,0,1-.459-2.3l5.6-2.319a1.2,1.2,0,0,1,.917,2.213L626.394,38A1.193,1.193,0,0,1,625.936,38.087Zm-63.246,0a1.192,1.192,0,0,1-.458-.092l-5.6-2.319a1.2,1.2,0,1,1,.917-2.212l5.6,2.318a1.2,1.2,0,0,1-.459,2.3Zm7.42-11.1a1.191,1.191,0,0,1-.847-.351l-8.417-8.417a1.2,1.2,0,0,1,1.694-1.694l8.417,8.417a1.2,1.2,0,0,1-.847,2.045Zm48.4,0a1.2,1.2,0,0,1-.847-2.044l8.417-8.417a1.2,1.2,0,1,1,1.694,1.694l-8.417,8.417A1.19,1.19,0,0,1,618.516,26.982Zm-24.2-4.658a1.2,1.2,0,1,1,.846-.348A1.206,1.206,0,0,1,594.313,22.323Zm13.1-2.76a1.2,1.2,0,0,1-1.106-1.656l2.319-5.6a1.2,1.2,0,1,1,2.213.917l-2.319,5.6A1.2,1.2,0,0,1,607.411,19.563Zm-26.2,0a1.2,1.2,0,0,1-1.107-.74l-2.319-5.6A1.2,1.2,0,1,1,580,12.309l2.319,5.6a1.2,1.2,0,0,1-1.106,1.656Zm13.1-3.9a1.2,1.2,0,0,1-1.2-1.2V4.2a1.2,1.2,0,1,1,2.4,0V14.462A1.2,1.2,0,0,1,594.313,15.659Z" transform="translate(-551.033 -3)" fill="#e84b4b"/>
</svg>
