<svg xmlns="http://www.w3.org/2000/svg" width="12.998" height="13" viewBox="0 0 12.998 13">
  <g id="Grupo_8389" data-name="Grupo 8389" transform="translate(0)">
    <path id="Trazado_4278" data-name="Trazado 4278" d="M1989.421,975.9a6.5,6.5,0,1,1,6.5-6.5A6.507,6.507,0,0,1,1989.421,975.9Zm0-12.258a5.757,5.757,0,1,0,5.757,5.757A5.764,5.764,0,0,0,1989.421,963.64Z" transform="translate(-1982.921 -962.897)" fill="#fff"/>
    <path id="Trazado_4279" data-name="Trazado 4279" d="M2022.9,1022.926h-5.12a.371.371,0,1,1,0-.742h5.12a.371.371,0,0,1,0,.742Z" transform="translate(-2013.845 -1016.055)" fill="#fff"/>
    <path id="Trazado_4280" data-name="Trazado 4280" d="M2042.579,1003.252a.371.371,0,0,1-.371-.371v-5.12a.371.371,0,1,1,.742,0v5.12A.37.37,0,0,1,2042.579,1003.252Z" transform="translate(-2036.08 -993.821)" fill="#fff"/>
  </g>
</svg>
