<svg xmlns="http://www.w3.org/2000/svg" xmlns:xlink="http://www.w3.org/1999/xlink" width="10.68" height="13.145" viewBox="0 0 10.68 13.145">
  <defs>
    <clipPath id="clip-path">
      <rect id="Rectángulo_1287" data-name="Rectángulo 1287" width="10.68" height="13.144" fill="#292f36"/>
    </clipPath>
  </defs>
  <g id="Grupo_6402" data-name="Grupo 6402" transform="translate(0 0)">
    <g id="Grupo_6292" data-name="Grupo 6292">
      <g id="Grupo_6291" data-name="Grupo 6291" clip-path="url(#clip-path)">
        <path id="Trazado_2863" data-name="Trazado 2863" d="M9.352.1H1.336A1.3,1.3,0,0,0,0,1.36v9.073a1.174,1.174,0,0,0,.547.945.587.587,0,0,0-.013.063v.882a.9.9,0,0,0,.935.882h.267a.9.9,0,0,0,.935-.882v-.63H8.016v.63a.9.9,0,0,0,.935.882h.267a.9.9,0,0,0,.935-.882v-.882a1.234,1.234,0,0,0,.534-1.008V1.36A1.3,1.3,0,0,0,9.352.1ZM2.138,12.323a.385.385,0,0,1-.4.378H1.47a.385.385,0,0,1-.4-.378V11.63a1.418,1.418,0,0,0,.4.063h.668v.63Zm7.482,0a.385.385,0,0,1-.4.378H8.951a.385.385,0,0,1-.4-.378v-.63h.8a1.864,1.864,0,0,0,.267-.024Zm.534-1.89a.78.78,0,0,1-.8.756H1.47c-.426,0-.935-.339-.935-.756V8.165h9.619Zm0-2.772H.534V2.62h9.619Zm0-5.544H.534V1.36A.78.78,0,0,1,1.336.6H9.352a.78.78,0,0,1,.8.756Zm0,0" transform="translate(0 -0.096)" fill="#292f36"/>
      </g>
    </g>
    <path id="Trazado_2864" data-name="Trazado 2864" d="M69.112,25.7H67.455a.254.254,0,1,0,0,.508h1.657a.254.254,0,1,0,0-.508Zm0,0" transform="translate(-64.36 -24.68)" fill="#292f36"/>
    <path id="Trazado_2865" data-name="Trazado 2865" d="M138.237,25.7h-.382a.254.254,0,1,0,0,.508h.382a.254.254,0,1,0,0-.508Zm0,0" transform="translate(-131.83 -24.68)" fill="#292f36"/>
    <path id="Trazado_2866" data-name="Trazado 2866" d="M29.565,222.424a.762.762,0,1,0-.765-.762.764.764,0,0,0,.765.762Zm0-1.016a.254.254,0,1,1-.255.254.256.256,0,0,1,.255-.254Zm0,0" transform="translate(-27.653 -212.21)" fill="#292f36"/>
    <path id="Trazado_2867" data-name="Trazado 2867" d="M189.565,222.424a.762.762,0,1,0-.765-.762.764.764,0,0,0,.765.762Zm0-1.016a.254.254,0,1,1-.255.254.256.256,0,0,1,.255-.254Zm0,0" transform="translate(-180.789 -212.21)" fill="#292f36"/>
  </g>
</svg>
