<svg xmlns="http://www.w3.org/2000/svg" width="14.517" height="14.517" viewBox="0 0 14.517 14.517">
  <path id="Trazado_2858" data-name="Trazado 2858" d="M1818.678,1131.99l-.033.143a7.256,7.256,0,0,1-14.132,0l-.033-.143a5.6,5.6,0,0,1-.153-1.2l0-.187v-.059c0-.023,0-.045,0-.068a7.258,7.258,0,1,1,14.517,0c0,.024,0,.048,0,.071v.056l0,.188A6.5,6.5,0,0,1,1818.678,1131.99Zm-7.1-7.574a6.063,6.063,0,1,0,6.063,6.063A6.069,6.069,0,0,0,1811.578,1124.417Zm1.8,8.981a.593.593,0,0,1-.423-.175l-1.8-1.8a.594.594,0,0,1-.175-.423v-4.111a.6.6,0,0,1,1.2,0v3.863l1.624,1.624a.6.6,0,0,1-.423,1.021Z" transform="translate(-1804.32 -1123.221)"/>
</svg>
