<svg xmlns="http://www.w3.org/2000/svg" width="15.743" height="16.793" viewBox="0 0 15.743 16.793">
  <path id="Trazado_2846" data-name="Trazado 2846" d="M1576.568,1467.8a4.529,4.529,0,0,1-4.4-3.594l-.021-.092h-3.082a.378.378,0,0,1-.372-.383v-11.343a.378.378,0,0,1,.372-.383h3.428v-.614a.372.372,0,1,1,.744,0v.614h2.955v-.614a.372.372,0,1,1,.744,0v.614h3.076v-.614a.372.372,0,1,1,.744,0v.614h3.307a.364.364,0,0,1,.263.112.388.388,0,0,1,.109.271v11.343a.378.378,0,0,1-.372.383h-3.081l-.021.092A4.529,4.529,0,0,1,1576.568,1467.8Zm0-8.543a3.89,3.89,0,1,0,3.773,3.888A3.836,3.836,0,0,0,1576.568,1459.26Zm0-.767a4.592,4.592,0,0,1,4.517,4.655c0,.015,0,.031,0,.046v.036l0,.121h2.614v-7.519H1569.44v7.519h2.614l0-.12v-.038c0-.015,0-.029,0-.044A4.593,4.593,0,0,1,1576.568,1458.493Zm-7.128-3.429H1583.7v-2.29h-2.935v.572a.372.372,0,1,1-.744,0v-.572h-3.076v.572a.372.372,0,1,1-.744,0v-.572h-2.955v.572a.372.372,0,1,1-.744,0v-.572h-3.056Zm8.247,9.955a.365.365,0,0,1-.263-.112l-1.12-1.154a.388.388,0,0,1-.109-.271v-2.636a.372.372,0,1,1,.744,0v2.478l1.011,1.042a.392.392,0,0,1,0,.542A.365.365,0,0,1,1577.687,1465.02Z" transform="translate(-1568.696 -1451.01)"/>
</svg>
