<svg xmlns="http://www.w3.org/2000/svg" width="18.165" height="16.519" viewBox="0 0 18.165 16.519">
  <g id="Grupo_6404" data-name="Grupo 6404" transform="translate(-372.902 135.484)">
    <path id="Trazado_2513" data-name="Trazado 2513" d="M392.466-129.585h.592a.4.4,0,0,0,.395-.394.4.4,0,0,0-.395-.395h-.592a.4.4,0,0,0-.395.395A.4.4,0,0,0,392.466-129.585Z" transform="translate(-7.323 -1.952)" fill="#009fe3"/>
    <path id="Trazado_2514" data-name="Trazado 2514" d="M390.985-135.05a.787.787,0,0,0-.711-.434H373.7a.822.822,0,0,0-.71.434.786.786,0,0,0,.079.829l6.966,8.763v5.7a.775.775,0,0,0,.415.691.823.823,0,0,0,.375.1.769.769,0,0,0,.454-.138l2.191-1.52a1.205,1.205,0,0,0,.494-.967v-3.888l6.947-8.743A.788.788,0,0,0,390.985-135.05Zm-7.737,9.2a.423.423,0,0,0-.078.237v4.007a.422.422,0,0,1-.158.336l-2.191,1.52v-5.862a.36.36,0,0,0-.158-.316l-4.46-5.6h7.164a.4.4,0,0,0,.395-.394.4.4,0,0,0-.395-.395H375.59l-1.895-2.369h16.578Z" fill="#009fe3"/>
  </g>
</svg>
