<svg xmlns="http://www.w3.org/2000/svg" width="34" height="31.406" viewBox="0 0 34 31.406">
  <g id="Grupo_6475" data-name="Grupo 6475" transform="translate(-76.51 -316.344)">
    <text id="Histórico" transform="translate(93.51 345.749)" fill="#009fe3" font-size="8" font-family="OpenSans, Open Sans"><tspan x="-16.664" y="0">Histórico</tspan></text>
    <path id="Trazado_2818" data-name="Trazado 2818" d="M1912.888,1443.417a4.969,4.969,0,0,1-4.857-3.853l-.023-.1h-3.4a.411.411,0,0,1-.411-.411V1426.9a.411.411,0,0,1,.411-.411h3.787v-.658a.411.411,0,0,1,.822,0v.658h3.264v-.658a.411.411,0,0,1,.822,0v.658h3.4v-.658a.411.411,0,0,1,.822,0v.658h3.653a.411.411,0,0,1,.411.411v12.158a.411.411,0,0,1-.411.411h-3.4l-.023.1A4.969,4.969,0,0,1,1912.888,1443.417Zm0-9.157a4.168,4.168,0,1,0,4.167,4.168A4.172,4.172,0,0,0,1912.888,1434.26Zm0-.822a5,5,0,0,1,4.99,4.99c0,.016,0,.033,0,.049v.038l0,.129h2.888v-8.06h-15.746v8.06h2.887l0-.129v-.041c0-.016,0-.031,0-.047A5,5,0,0,1,1912.888,1433.438Zm-7.873-3.675h15.745v-2.455h-3.242v.613a.411.411,0,1,1-.822,0v-.613h-3.4v.613a.411.411,0,1,1-.822,0v-.613h-3.264v.613a.411.411,0,1,1-.822,0v-.613h-3.375Zm9.109,10.672a.409.409,0,0,1-.291-.12l-1.237-1.237a.409.409,0,0,1-.12-.291v-2.826a.411.411,0,1,1,.822,0v2.656l1.116,1.116a.411.411,0,0,1-.291.7Z" transform="translate(-1819.982 -1109.074)" fill="#009fe3"/>
  </g>
</svg>
