<svg xmlns="http://www.w3.org/2000/svg" width="13.658" height="13.658" viewBox="0 0 13.658 13.658">
  <g id="Grupo_6487" data-name="Grupo 6487" transform="translate(171.124 54.975)">
    <path id="Trazado_2862" data-name="Trazado 2862" d="M-157.693-48.374h-.461a6.152,6.152,0,0,0-5.913-5.913v-.461a.227.227,0,0,0-.228-.228.227.227,0,0,0-.228.228v.461a6.152,6.152,0,0,0-5.913,5.913h-.461a.227.227,0,0,0-.228.228.227.227,0,0,0,.228.228h.461a6.152,6.152,0,0,0,5.913,5.913v.461a.227.227,0,0,0,.228.228.227.227,0,0,0,.228-.228v-.461a6.152,6.152,0,0,0,5.913-5.913h.461a.227.227,0,0,0,.228-.228A.227.227,0,0,0-157.693-48.374Zm-6.374,5.913v-.45a.227.227,0,0,0-.228-.228.227.227,0,0,0-.228.228v.45a5.7,5.7,0,0,1-5.458-5.458h.45a.227.227,0,0,0,.228-.228.227.227,0,0,0-.228-.228h-.45a5.7,5.7,0,0,1,5.458-5.458v.45a.227.227,0,0,0,.228.228.227.227,0,0,0,.228-.228v-.45a5.7,5.7,0,0,1,5.458,5.458h-.45a.227.227,0,0,0-.228.228.227.227,0,0,0,.228.228h.45A5.7,5.7,0,0,1-164.067-42.461Z" transform="translate(0 0)"/>
    <path id="Trazado_2863" data-name="Trazado 2863" d="M-148.433-35.243h-1.156a1.6,1.6,0,0,0-1.348-1.348v-1.156a.227.227,0,0,0-.228-.228.227.227,0,0,0-.228.228v1.156a1.6,1.6,0,0,0-1.348,1.348H-153.9a.227.227,0,0,0-.228.228.227.227,0,0,0,.228.228h1.156a1.594,1.594,0,0,0,1.348,1.348v1.156a.227.227,0,0,0,.228.228.227.227,0,0,0,.228-.228V-33.44a1.6,1.6,0,0,0,1.348-1.348h1.156a.227.227,0,0,0,.228-.228A.227.227,0,0,0-148.433-35.243Zm-2.732,1.366a1.139,1.139,0,0,1-1.138-1.138,1.139,1.139,0,0,1,1.138-1.138,1.139,1.139,0,0,1,1.138,1.138A1.139,1.139,0,0,1-151.165-33.878Z" transform="translate(-13.13 -13.13)"/>
  </g>
</svg>
