<svg xmlns="http://www.w3.org/2000/svg" width="25.532" height="16.063" viewBox="0 0 25.532 16.063">
  <g id="Grupo_6403" data-name="Grupo 6403" transform="translate(829.702 202.972)">
    <path id="Trazado_2524" data-name="Trazado 2524" d="M-825.571-186.908a.677.677,0,0,1-.552-.3l-3.452-5.024a.743.743,0,0,1,.18-1.021.7.7,0,0,1,.41-.134.651.651,0,0,1,.563.312l2.146,3.094V-202.2a.754.754,0,0,1,.736-.767.753.753,0,0,1,.735.767v12.221l2.138-3.084a.662.662,0,0,1,.568-.318.727.727,0,0,1,.411.13.754.754,0,0,1,.174,1.039l-3.448,4.957A.754.754,0,0,1-825.571-186.908Z" transform="translate(0 0)" fill="#009fe3"/>
    <path id="Trazado_2525" data-name="Trazado 2525" d="M-813.8-180.806a.487.487,0,0,0,.427.533h5.855a.487.487,0,0,0,.427-.533.486.486,0,0,0-.427-.532h-5.855a.486.486,0,0,0-.427.532Zm0,0" transform="translate(-4.876 -6.635)" fill="#009fe3"/>
    <path id="Trazado_2526" data-name="Trazado 2526" d="M-803.547-190.685a.508.508,0,0,0,.485-.532.508.508,0,0,0-.485-.532h-9.77a.508.508,0,0,0-.485.532.508.508,0,0,0,.485.532Zm0,0" transform="translate(-4.876 -3.442)" fill="#009fe3"/>
    <path id="Trazado_2527" data-name="Trazado 2527" d="M-813.8-202.272a.53.53,0,0,0,.532.532h13.444a.53.53,0,0,0,.532-.532.53.53,0,0,0-.532-.532H-813.27a.53.53,0,0,0-.532.532Zm0,0" transform="translate(-4.876 -0.052)" fill="#009fe3"/>
  </g>
</svg>
