<svg xmlns="http://www.w3.org/2000/svg" width="12" height="15" viewBox="0 0 12 15">
  <g id="Grupo_6145" data-name="Grupo 6145" transform="translate(1.702 -0.846)">
    <path id="Trazado_358" data-name="Trazado 358" d="M1.276,21.4a4.067,4.067,0,0,1,6.132,0,4.956,4.956,0,0,1,0,6.584L4.342,31.336,1.276,27.979a4.956,4.956,0,0,1,0-6.584Zm.541,6.1,2.525,2.79L6.867,27.5a4.252,4.252,0,0,0,0-5.668,3.379,3.379,0,0,0-5.05,0,4.252,4.252,0,0,0,0,5.668Zm0,0" transform="translate(-0.071 -19.154)" fill="#929da9"/>
    <path id="Trazado_2538" data-name="Trazado 2538" d="M12.027,46.4h.854a.427.427,0,0,1,0,.855h-.854a.459.459,0,0,1-.427-.427.421.421,0,0,1,.427-.427Zm0,0" transform="translate(-3.009 -31.408)" fill="#929da9"/>
    <path id="Trazado_373" data-name="Trazado 373" d="M31.227,46.4h.854a.427.427,0,0,1,0,.855h-.854a.459.459,0,0,1-.427-.427.421.421,0,0,1,.427-.427Zm0,0" transform="translate(-28.504 -31.408)" fill="#929da9"/>
    <path id="Trazado_377" data-name="Trazado 377" d="M36.127,46.4h.8a.427.427,0,0,1,0,.855h-.8v0a.427.427,0,0,1,0-.855Zm0,0" transform="translate(-35.421 -31.408)" fill="#929da9"/>
    <path id="Trazado_2539" data-name="Trazado 2539" d="M36.127,46.4h.8a.427.427,0,0,1,0,.855h-.8v0a.427.427,0,0,1,0-.855Zm0,0" transform="translate(-37.4 -31.408)" fill="#929da9"/>
    <path id="Trazado_381" data-name="Trazado 381" d="M16.827,46.4h.854a.427.427,0,0,1,0,.855h-.854a.459.459,0,0,1-.427-.427.421.421,0,0,1,.427-.427Zm0,0" transform="translate(-9.761 -31.408)" fill="#929da9"/>
    <path id="Trazado_384" data-name="Trazado 384" d="M21.627,46.4h.855a.427.427,0,0,1,0,.855h-.855a.459.459,0,0,1-.427-.427.421.421,0,0,1,.427-.427Zm0,0" transform="translate(-17.009 -31.408)" fill="#929da9"/>
    <path id="Trazado_387" data-name="Trazado 387" d="M7.363,24.8A2.564,2.564,0,1,1,4.8,27.364,2.6,2.6,0,0,1,7.363,24.8Zm0,4.273a1.709,1.709,0,1,0-1.709-1.709,1.687,1.687,0,0,0,1.709,1.709Zm0,0" transform="translate(-2.921 -21.863)" fill="#929da9"/>
  </g>
</svg>
