<svg xmlns="http://www.w3.org/2000/svg" width="16" height="16" viewBox="0 0 16 16">
  <g id="Grupo_8363" data-name="Grupo 8363" transform="translate(-1187.892 -744.07)">
    <g id="Grupo_8361" data-name="Grupo 8361" transform="translate(1198.634 752.526)">
      <path id="Trazado_4043" data-name="Trazado 4043" d="M1426.235,933.651h-3.943a.659.659,0,0,0-.657.657v4.732a.62.62,0,0,0,.27.493.291.291,0,0,0-.006.033v.46a.457.457,0,0,0,.46.46h.131a.457.457,0,0,0,.46-.46V939.7h2.629v.329a.457.457,0,0,0,.46.46h.132a.457.457,0,0,0,.46-.46v-.46a.657.657,0,0,0,.263-.526v-4.732a.659.659,0,0,0-.657-.657Zm-3.549,6.375a.194.194,0,0,1-.2.2h-.131a.193.193,0,0,1-.2-.2v-.361a.684.684,0,0,0,.2.033h.329Zm3.68,0a.194.194,0,0,1-.2.2h-.132a.194.194,0,0,1-.2-.2V939.7h.394a.821.821,0,0,0,.131-.013Zm.263-.986a.4.4,0,0,1-.394.394h-3.877a.462.462,0,0,1-.46-.394v-1.183h4.732Zm0-1.446H1421.9v-2.629h4.732Zm0-2.892H1421.9v-.394a.4.4,0,0,1,.394-.394h3.943a.4.4,0,0,1,.394.394Zm0,0" transform="translate(-1421.635 -933.651)" fill="#5a6978"/>
      <path id="Trazado_4044" data-name="Trazado 4044" d="M1453.563,945.439h-.854a.131.131,0,1,0,0,.263h.854a.131.131,0,1,0,0-.263Zm0,0" transform="translate(-1451.197 -944.913)" fill="#5a6978"/>
      <path id="Trazado_4045" data-name="Trazado 4045" d="M1485.322,945.439h-.2a.131.131,0,0,0,0,.263h.2a.131.131,0,1,0,0-.263Zm0,0" transform="translate(-1482.168 -944.913)" fill="#5a6978"/>
      <path id="Trazado_4046" data-name="Trazado 4046" d="M1435.291,1036.107a.394.394,0,1,0-.394-.394.4.4,0,0,0,.394.394Zm0-.526a.131.131,0,1,1-.131.131.132.132,0,0,1,.131-.131Zm0,0" transform="translate(-1434.306 -1030.784)" fill="#5a6978"/>
      <path id="Trazado_4047" data-name="Trazado 4047" d="M1508.963,1036.107a.394.394,0,1,0-.394-.394.4.4,0,0,0,.394.394Zm0-.526a.131.131,0,1,1-.132.131.132.132,0,0,1,.132-.131Zm0,0" transform="translate(-1504.692 -1030.784)" fill="#5a6978"/>
    </g>
    <g id="Grupo_8362" data-name="Grupo 8362" transform="translate(1187.892 745.065)">
      <path id="Trazado_4048" data-name="Trazado 4048" d="M1192.492,766.376h-3.943a.659.659,0,0,0-.657.657v4.732a.62.62,0,0,0,.27.493.285.285,0,0,0-.007.033v.46a.457.457,0,0,0,.46.46h.131a.457.457,0,0,0,.46-.46v-.329h2.629v.329a.457.457,0,0,0,.46.46h.132a.457.457,0,0,0,.46-.46v-.46a.656.656,0,0,0,.263-.526v-4.732a.659.659,0,0,0-.657-.657Zm-3.549,6.375a.194.194,0,0,1-.2.2h-.131a.193.193,0,0,1-.2-.2v-.361a.685.685,0,0,0,.2.033h.329Zm3.68,0a.194.194,0,0,1-.2.2h-.132a.194.194,0,0,1-.2-.2v-.329h.394a.831.831,0,0,0,.132-.013Zm.263-.986a.4.4,0,0,1-.394.394h-3.877a.462.462,0,0,1-.46-.394v-1.183h4.731Zm0-1.446h-4.731V767.69h4.731Zm0-2.892h-4.731v-.394a.4.4,0,0,1,.394-.394h3.943a.4.4,0,0,1,.394.394Zm0,0" transform="translate(-1187.892 -766.376)" fill="#5a6978"/>
      <path id="Trazado_4049" data-name="Trazado 4049" d="M1219.82,778.164h-.854a.131.131,0,1,0,0,.263h.854a.131.131,0,1,0,0-.263Zm0,0" transform="translate(-1217.454 -777.638)" fill="#5a6978"/>
      <path id="Trazado_4050" data-name="Trazado 4050" d="M1251.579,778.164h-.2a.131.131,0,0,0,0,.263h.2a.131.131,0,0,0,0-.263Zm0,0" transform="translate(-1248.425 -777.638)" fill="#5a6978"/>
      <path id="Trazado_4051" data-name="Trazado 4051" d="M1201.548,868.833a.394.394,0,1,0-.394-.394.4.4,0,0,0,.394.394Zm0-.526a.131.131,0,1,1-.131.131.132.132,0,0,1,.131-.131Zm0,0" transform="translate(-1200.563 -863.509)" fill="#5a6978"/>
      <path id="Trazado_4052" data-name="Trazado 4052" d="M1275.22,868.833a.394.394,0,1,0-.394-.394.4.4,0,0,0,.394.394Zm0-.526a.131.131,0,1,1-.131.131.132.132,0,0,1,.131-.131Zm0,0" transform="translate(-1270.949 -863.509)" fill="#5a6978"/>
    </g>
    <path id="Trazado_4053" data-name="Trazado 4053" d="M1343.531,751.262a.222.222,0,0,1-.219-.219v-1.8a3.219,3.219,0,0,0-3.215-3.215h-3.225l1.146,1.146a.221.221,0,0,1,0,.309.229.229,0,0,1-.158.066.221.221,0,0,1-.156-.064l-1.518-1.518a.233.233,0,0,1-.067-.159.213.213,0,0,1,.064-.156l1.517-1.521a.22.22,0,0,1,.311.312l-1.146,1.146h3.225a3.66,3.66,0,0,1,3.658,3.653v1.8A.222.222,0,0,1,1343.531,751.262Z" transform="translate(-141.301 0)" fill="#5a6978"/>
    <path id="Trazado_4054" data-name="Trazado 4054" d="M1226.518,948.762a.221.221,0,0,1-.156-.064.22.22,0,0,1,0-.311l1.146-1.146h-3.225a3.658,3.658,0,0,1-3.654-3.653v-1.8a.219.219,0,1,1,.438,0v1.8a3.219,3.219,0,0,0,3.215,3.215h3.225l-1.146-1.146a.22.22,0,1,1,.311-.311l1.521,1.521a.219.219,0,0,1,0,.311l-1.518,1.518A.229.229,0,0,1,1226.518,948.762Z" transform="translate(-31.278 -188.692)" fill="#5a6978"/>
  </g>
</svg>
