<svg xmlns="http://www.w3.org/2000/svg" width="34" height="33.014" viewBox="0 0 34 33.014">
  <g id="Símbolo_5_27" data-name="Símbolo 5 – 27" transform="translate(-76.51 -361.736)">
    <path id="Trazado_2819" data-name="Trazado 2819" d="M2111.868,1452.92h.581v.581h-.581Zm1.161,0h.581v.581h-.581Zm1.161,0h.581v.581h-.581Zm9.871,0h2.323v.581h-2.323Zm3.484-1.161v-9.581a1.454,1.454,0,0,0-1.452-1.452h-.871a4.064,4.064,0,0,0-8.129,0h-4.936a1.454,1.454,0,0,0-1.452,1.452v9.581h-.581v1.452a1.453,1.453,0,0,0,1.452,1.452h15.1a1.453,1.453,0,0,0,1.452-1.452v-1.452Zm-1.452-10.452a.872.872,0,0,1,.871.871v9.581h-.581v-9.29a.581.581,0,0,0-.581-.581h-.751a4.009,4.009,0,0,0,.125-.581Zm-8.25-1.647,3.082,1.284,1.055,3.165a3.478,3.478,0,0,1-4.136-4.449Zm4.688,4.268-1.041-3.122,2.325-2.326a3.478,3.478,0,0,1-1.285,5.448Zm-1.373-6.685a3.468,3.468,0,0,1,2.248.826l-2.315,2.315-3.023-1.259A3.485,3.485,0,0,1,2121.158,1437.243Zm-9.871,4.935a.872.872,0,0,1,.871-.871h4.982a4.01,4.01,0,0,0,.125.581h-4.816a.581.581,0,0,0-.581.581v9.29h-.581Zm16.258,11.032a.872.872,0,0,1-.871.871h-15.1a.872.872,0,0,1-.871-.871v-.871h5.981a2.256,2.256,0,0,0,1.518.581h1.841a2.256,2.256,0,0,0,1.518-.581h3.658v-.581h-3.895l-.085.085a1.68,1.68,0,0,1-1.2.5h-1.841a1.681,1.681,0,0,1-1.2-.5l-.085-.085h-4.475v-9.29h5.042a4.056,4.056,0,0,0,7.333,0h.979v9.871h1.742Zm-3.193-4.355a.866.866,0,0,0-.482.146l-1.013-.759a.855.855,0,0,0,.043-.258.871.871,0,1,0-1.742,0,.857.857,0,0,0,.051.284l-1.626,1.3a.854.854,0,0,0-.977.043l-1.252-.835a.844.844,0,0,0,.029-.212.871.871,0,1,0-1.742,0,.844.844,0,0,0,.029.212l-1.252.835a.862.862,0,0,0-.519-.176.871.871,0,1,0,.871.871.845.845,0,0,0-.03-.212l1.252-.835a.855.855,0,0,0,1.039,0l1.252.835a.847.847,0,0,0-.03.212.871.871,0,1,0,1.691-.284l1.626-1.3a.86.86,0,0,0,.94-.013l1.013.759a.856.856,0,0,0-.043.258.871.871,0,1,0,.871-.871ZM2113.9,1450.6a.29.29,0,1,1,.29-.29A.291.291,0,0,1,2113.9,1450.6Zm2.613-1.742a.29.29,0,1,1,.291-.29A.291.291,0,0,1,2116.513,1448.856Zm2.613,1.742a.29.29,0,1,1,.291-.29A.291.291,0,0,1,2119.126,1450.6Zm2.9-2.323a.29.29,0,1,1,.291-.29A.291.291,0,0,1,2122.029,1448.275Zm2.323,1.742a.29.29,0,1,1,.29-.29A.291.291,0,0,1,2124.352,1450.017Zm-6.678-6.968h-4.645v4.064h4.645Zm-.581,3.484h-3.484v-2.9h3.484Zm-2.9-2.323h2.323v.581h-2.323Zm0,1.161h2.323v.581h-2.323Zm4.064.581h.581v.581h-.581Zm1.162,0h5.806v.581h-5.806Z" transform="translate(-2026.389 -1074.925)" fill="#009fe3"/>
    <text id="Reportes" transform="translate(93.51 392.749)" fill="#009fe3" font-size="8" font-family="OpenSans, Open Sans"><tspan x="-16.781" y="0">Reportes</tspan></text>
  </g>
</svg>
