<svg xmlns="http://www.w3.org/2000/svg" width="23.21" height="32.232" viewBox="0 0 23.21 32.232">
  <g id="Símbolo_4_2" data-name="Símbolo 4 – 2" transform="translate(-81.3 -269.518)">
    <text id="Rutas" transform="translate(93.51 299.749)" fill="#009fe3" font-size="8" font-family="OpenSans, Open Sans"><tspan x="-10.473" y="0">Rutas</tspan></text>
    <g id="Grupo_6213" data-name="Grupo 6213" transform="translate(83 269.518)">
      <path id="Trazado_358" data-name="Trazado 358" d="M1.6,21.762a5.133,5.133,0,0,1,7.742,0,6.26,6.26,0,0,1,0,8.314l-3.871,4.24L1.6,30.076a6.26,6.26,0,0,1,0-8.314Zm.683,7.709,3.188,3.524,3.188-3.524a5.371,5.371,0,0,0,0-7.158,4.265,4.265,0,0,0-6.376,0,5.371,5.371,0,0,0,0,7.158Zm0,0" transform="translate(4.708 -20)" fill="#009fe3"/>
      <path id="Trazado_363" data-name="Trazado 363" d="M12.055,46.4h.911a.455.455,0,0,1,0,.911h-.911a.49.49,0,0,1-.455-.455.449.449,0,0,1,.455-.455Zm0,0" transform="translate(5.04 -31.311)" fill="#009fe3"/>
      <path id="Trazado_2538" data-name="Trazado 2538" d="M12.055,46.4h.911a.455.455,0,0,1,0,.911h-.911a.49.49,0,0,1-.455-.455.449.449,0,0,1,.455-.455Zm0,0" transform="translate(7.878 -31.311)" fill="#009fe3"/>
      <path id="Trazado_373" data-name="Trazado 373" d="M31.255,46.4h.911a.455.455,0,0,1,0,.911h-.911a.49.49,0,0,1-.455-.455.449.449,0,0,1,.455-.455Zm0,0" transform="translate(-26.335 -31.311)" fill="#009fe3"/>
      <path id="Trazado_374" data-name="Trazado 374" d="M26.455,46.4h.911a.455.455,0,0,1,0,.911h-.911A.49.49,0,0,1,26,46.855a.449.449,0,0,1,.455-.455Zm0,0" transform="translate(-18.555 -31.311)" fill="#009fe3"/>
      <path id="Trazado_377" data-name="Trazado 377" d="M36.155,46.4h.854a.455.455,0,0,1,0,.911h-.854v0a.455.455,0,0,1,0-.911Zm0,0" transform="translate(-34.478 -31.311)" fill="#009fe3"/>
      <path id="Trazado_2539" data-name="Trazado 2539" d="M36.155,46.4h.854a.455.455,0,0,1,0,.911h-.854v0a.455.455,0,0,1,0-.911Zm0,0" transform="translate(-37.4 -31.311)" fill="#009fe3"/>
      <path id="Trazado_381" data-name="Trazado 381" d="M16.855,46.4h.911a.455.455,0,0,1,0,.911h-.911a.49.49,0,0,1-.455-.455.449.449,0,0,1,.455-.455Zm0,0" transform="translate(-2.996 -31.311)" fill="#009fe3"/>
      <path id="Trazado_384" data-name="Trazado 384" d="M21.655,46.4h.911a.455.455,0,0,1,0,.911h-.911a.49.49,0,0,1-.455-.455.449.449,0,0,1,.455-.455Zm0,0" transform="translate(-10.776 -31.311)" fill="#009fe3"/>
      <path id="Trazado_387" data-name="Trazado 387" d="M7.532,24.8a2.732,2.732,0,0,1,0,5.465,2.732,2.732,0,0,1,0-5.465Zm0,4.554a1.822,1.822,0,1,0-1.822-1.822,1.8,1.8,0,0,0,1.822,1.822Zm0,0" transform="translate(2.632 -21.666)" fill="#009fe3"/>
    </g>
  </g>
</svg>
