<svg xmlns="http://www.w3.org/2000/svg" width="14" height="14" viewBox="0 0 14 14">
  <path id="Trazado_4273" data-name="Trazado 4273" d="M2126.914,1249.91a6.971,6.971,0,0,1-6.814-5.405l-.035-.149,0-.008a5.669,5.669,0,0,1-.142-1.137l0-.177v-.061c0-.028,0-.045,0-.063a7,7,0,0,1,14,0c0,.019,0,.038,0,.056l0,.065,0,.188a6.28,6.28,0,0,1-.145,1.14l-.034.146A6.971,6.971,0,0,1,2126.914,1249.91Zm0-13.182a6.182,6.182,0,1,0,6.183,6.182A6.19,6.19,0,0,0,2126.914,1236.728Zm1.78,8.888a.406.406,0,0,1-.289-.12l-1.781-1.78a.407.407,0,0,1-.12-.289v-4.068a.409.409,0,0,1,.817,0v3.9l1.661,1.661a.409.409,0,0,1-.289.7Z" transform="translate(-2119.914 -1235.91)" fill="#5a6978"/>
</svg>
