<svg xmlns="http://www.w3.org/2000/svg" width="12" height="12" viewBox="0 0 12 12">
  <path id="Trazado_2864" data-name="Trazado 2864" d="M2125.914,1247.91a5.975,5.975,0,0,1-5.841-4.633l-.03-.128,0-.007a4.886,4.886,0,0,1-.122-.974l0-.152v-.052c0-.024,0-.039,0-.054a6,6,0,0,1,12,0c0,.016,0,.032,0,.048l0,.056,0,.161a5.438,5.438,0,0,1-.124.977l-.029.125A5.976,5.976,0,0,1,2125.914,1247.91Zm0-11.3a5.3,5.3,0,1,0,5.3,5.3A5.305,5.305,0,0,0,2125.914,1236.611Zm1.526,7.618a.349.349,0,0,1-.248-.1l-1.526-1.526a.349.349,0,0,1-.1-.248v-3.487a.35.35,0,0,1,.7,0v3.342l1.423,1.424a.351.351,0,0,1-.248.6Z" transform="translate(-2119.914 -1235.91)"/>
</svg>
