<svg id="Grupo_6131" data-name="Grupo 6131" xmlns="http://www.w3.org/2000/svg" xmlns:xlink="http://www.w3.org/1999/xlink" width="12" height="15" viewBox="0 0 12 15">
  <defs>
    <clipPath id="clip-path">
      <rect id="Rectángulo_1167" data-name="Rectángulo 1167" width="12" height="15" fill="#929da9"/>
    </clipPath>
  </defs>
  <g id="Grupo_6130" data-name="Grupo 6130">
    <g id="Grupo_6129" data-name="Grupo 6129" clip-path="url(#clip-path)">
      <path id="Trazado_2491" data-name="Trazado 2491" d="M10.508.1H1.5A1.475,1.475,0,0,0,0,1.538V11.891A1.344,1.344,0,0,0,.615,12.97a.679.679,0,0,0-.014.072v1.007a1.022,1.022,0,0,0,1.051,1.007h.3A1.022,1.022,0,0,0,3,14.048v-.719h6v.719a1.022,1.022,0,0,0,1.051,1.007h.3a1.022,1.022,0,0,0,1.051-1.007V13.042a1.415,1.415,0,0,0,.6-1.15V1.538A1.475,1.475,0,0,0,10.508.1ZM2.4,14.048a.436.436,0,0,1-.45.431h-.3a.436.436,0,0,1-.45-.431v-.791a1.57,1.57,0,0,0,.45.072H2.4v.719Zm8.407,0a.436.436,0,0,1-.45.431h-.3a.436.436,0,0,1-.45-.431v-.719h.9a2.063,2.063,0,0,0,.3-.027Zm.6-2.157a.883.883,0,0,1-.9.863H1.651c-.478,0-1.051-.386-1.051-.863V9.3H11.409Zm0-3.164H.6V2.976H11.409Zm0-6.327H.6V1.538A.883.883,0,0,1,1.5.675h9.007a.883.883,0,0,1,.9.863Zm0,0" transform="translate(0 -0.096)" fill="#929da9"/>
    </g>
  </g>
  <path id="Trazado_2492" data-name="Trazado 2492" d="M69.438,25.7H67.5a.3.3,0,1,0,0,.594h1.939a.3.3,0,1,0,0-.594Zm0,0" transform="translate(-64.042 -24.506)" fill="#929da9"/>
  <path id="Trazado_2493" data-name="Trazado 2493" d="M138.346,25.7H137.9a.3.3,0,1,0,0,.594h.448a.3.3,0,1,0,0-.594Zm0,0" transform="translate(-131.141 -24.506)" fill="#929da9"/>
  <path id="Trazado_2494" data-name="Trazado 2494" d="M29.7,222.683a.892.892,0,1,0-.9-.892.894.894,0,0,0,.9.892Zm0-1.189a.3.3,0,1,1-.3.3.3.3,0,0,1,.3-.3Zm0,0" transform="translate(-27.457 -211.017)" fill="#929da9"/>
  <path id="Trazado_2495" data-name="Trazado 2495" d="M189.7,222.683a.892.892,0,1,0-.9-.892.894.894,0,0,0,.9.892Zm0-1.189a.3.3,0,1,1-.3.3.3.3,0,0,1,.3-.3Zm0,0" transform="translate(-179.923 -211.017)" fill="#929da9"/>
</svg>
