<svg xmlns="http://www.w3.org/2000/svg" width="38" height="31.52" viewBox="0 0 38 31.52">
  <g id="Grupo_6407" data-name="Grupo 6407" transform="translate(-74.51 -223.23)">
    <text id="Unidades" transform="translate(93.51 252.749)" fill="#009fe3" font-size="8" font-family="OpenSans-Semibold, Open Sans" font-weight="600"><tspan x="-18.18" y="0">Unidades</tspan></text>
    <path id="Trazado_2815" data-name="Trazado 2815" d="M4020.3,6610.632a1.253,1.253,0,0,1-1.249-1.284v-.773h-6.5v.773a1.253,1.253,0,0,1-1.249,1.284h-.333a1.254,1.254,0,0,1-1.249-1.284v-1.2a.243.243,0,0,1,.006-.052,1.7,1.7,0,0,1-.673-1.319v-12.345a1.776,1.776,0,0,1,1.749-1.8h10a1.777,1.777,0,0,1,1.749,1.8v12.345a1.83,1.83,0,0,1-.667,1.414v1.159a1.254,1.254,0,0,1-1.249,1.284Zm-.418-1.284a.414.414,0,0,0,.418.429h.333a.414.414,0,0,0,.418-.429v-.793a1.8,1.8,0,0,1-.251.02h-.918Zm-9.335,0a.414.414,0,0,0,.418.429h.333a.414.414,0,0,0,.418-.429v-.773h-.751a1.655,1.655,0,0,1-.418-.059Zm-.667-2.572a1.1,1.1,0,0,0,1.085.944h9.835a.933.933,0,0,0,.918-.944v-3h-11.838Zm11.838-3.856v-6.69h-11.838v6.69Zm0-7.544v-.944a.932.932,0,0,0-.918-.944h-10a.932.932,0,0,0-.918.944v.944Zm-1.751,11.313a1.113,1.113,0,1,1,1.082-1.112A1.1,1.1,0,0,1,4019.969,6606.688Zm0-1.371a.259.259,0,1,0,.251.259A.256.256,0,0,0,4019.969,6605.317Zm-8.335,1.371a1.113,1.113,0,1,1,1.082-1.112A1.1,1.1,0,0,1,4011.635,6606.688Zm0-1.371a.259.259,0,1,0,.251.259A.256.256,0,0,0,4011.635,6605.317Zm5-10.459a.427.427,0,0,1,0-.854h.5a.427.427,0,0,1,0,.854Zm-3.667,0a.427.427,0,0,1,0-.854h2.167a.427.427,0,0,1,0,.854Z" transform="translate(-3922.62 -6369.402)" fill="#009fe3"/>
  </g>
</svg>
