<svg id="Grupo_6131" data-name="Grupo 6131" xmlns="http://www.w3.org/2000/svg" xmlns:xlink="http://www.w3.org/1999/xlink" width="10" height="12" viewBox="0 0 10 12">
  <defs>
    <clipPath id="clip-path">
      <rect id="Rectángulo_1167" data-name="Rectángulo 1167" width="10" height="12" fill="#292f36"/>
    </clipPath>
  </defs>
  <g id="Grupo_6130" data-name="Grupo 6130">
    <g id="Grupo_6129" data-name="Grupo 6129" clip-path="url(#clip-path)">
      <path id="Trazado_2491" data-name="Trazado 2491" d="M8.757.1H1.251A1.207,1.207,0,0,0,0,1.25V9.533a1.067,1.067,0,0,0,.512.863.524.524,0,0,0-.012.058v.805a.837.837,0,0,0,.876.805h.25a.837.837,0,0,0,.876-.805v-.575h5v.575a.837.837,0,0,0,.876.805h.25a.837.837,0,0,0,.876-.805v-.805a1.12,1.12,0,0,0,.5-.92V1.25A1.207,1.207,0,0,0,8.757.1ZM2,11.259a.357.357,0,0,1-.375.345h-.25A.357.357,0,0,1,1,11.259v-.633a1.359,1.359,0,0,0,.375.058H2v.575Zm7.005,0a.357.357,0,0,1-.375.345h-.25a.357.357,0,0,1-.375-.345v-.575h.751a1.789,1.789,0,0,0,.25-.022Zm.5-1.726a.722.722,0,0,1-.751.69H1.376c-.4,0-.876-.309-.876-.69V7.462H9.507ZM9.507,7H.5V2.4H9.507Zm0-5.062H.5V1.25A.722.722,0,0,1,1.251.56H8.757a.722.722,0,0,1,.751.69Zm0,0" transform="translate(0 -0.096)" fill="#292f36"/>
    </g>
  </g>
  <path id="Trazado_2492" data-name="Trazado 2492" d="M69.011,25.7h-1.57a.241.241,0,1,0,0,.481h1.57a.241.241,0,1,0,0-.481Zm0,0" transform="translate(-64.548 -24.734)" fill="#292f36"/>
  <path id="Trazado_2493" data-name="Trazado 2493" d="M138.2,25.7h-.362a.241.241,0,1,0,0,.481h.362a.241.241,0,1,0,0-.481Zm0,0" transform="translate(-132.203 -24.734)" fill="#292f36"/>
  <path id="Trazado_2494" data-name="Trazado 2494" d="M29.525,222.344a.722.722,0,1,0-.725-.722.723.723,0,0,0,.725.722Zm0-.962a.241.241,0,1,1-.242.241.243.243,0,0,1,.242-.241Zm0,0" transform="translate(-27.713 -213.006)" fill="#292f36"/>
  <path id="Trazado_2495" data-name="Trazado 2495" d="M189.525,222.344a.722.722,0,1,0-.725-.722.723.723,0,0,0,.725.722Zm0-.962a.241.241,0,1,1-.242.241.243.243,0,0,1,.242-.241Zm0,0" transform="translate(-181.329 -213.006)" fill="#292f36"/>
</svg>
