<svg xmlns="http://www.w3.org/2000/svg" width="22.061" height="16.286" viewBox="0 0 22.061 16.286">
  <g id="Grupo_6402" data-name="Grupo 6402" transform="translate(349.519 -73.309)">
    <path id="Trazado_2516" data-name="Trazado 2516" d="M-346.6,84.874a2.35,2.35,0,0,1,.584.081V73.894a.582.582,0,0,0-.584-.585.582.582,0,0,0-.585.585V84.955A2.351,2.351,0,0,1-346.6,84.874Z" transform="translate(-0.557 0)" fill="#009fe3"/>
    <path id="Trazado_2517" data-name="Trazado 2517" d="M-335.162,73.309Z" transform="translate(-3.427)" fill="#009fe3"/>
    <path id="Trazado_2518" data-name="Trazado 2518" d="M-335.345,79.484a2.357,2.357,0,0,1-.585-.082V90.111a.583.583,0,0,0,.585.585.582.582,0,0,0,.585-.585V79.4A2.35,2.35,0,0,1-335.345,79.484Z" transform="translate(-3.244 -1.454)" fill="#009fe3"/>
    <path id="Trazado_2519" data-name="Trazado 2519" d="M-323.824,87.111a2.321,2.321,0,0,1-.585-.082v5.1a.582.582,0,0,0,.585.585.582.582,0,0,0,.585-.585v-5.1A2.316,2.316,0,0,1-323.824,87.111Z" transform="translate(-5.994 -3.275)" fill="#009fe3"/>
    <path id="Trazado_2520" data-name="Trazado 2520" d="M-323.824,79.178a2.316,2.316,0,0,1,.585.082v-5.1a.582.582,0,0,0-.585-.584.582.582,0,0,0-.585.584v5.1A2.321,2.321,0,0,1-323.824,79.178Z" transform="translate(-5.994 -0.063)" fill="#009fe3"/>
    <path id="Trazado_2521" data-name="Trazado 2521" d="M-347.158,93.221a2.363,2.363,0,0,1-2.361-2.361,2.363,2.363,0,0,1,2.361-2.36,2.363,2.363,0,0,1,2.36,2.36A2.363,2.363,0,0,1-347.158,93.221Zm0-3.716a1.357,1.357,0,0,0-1.356,1.355,1.357,1.357,0,0,0,1.356,1.355A1.357,1.357,0,0,0-345.8,90.86,1.357,1.357,0,0,0-347.158,89.5Z" transform="translate(0 -3.626)" fill="#009fe3"/>
    <path id="Trazado_2522" data-name="Trazado 2522" d="M-335.9,78.03a2.363,2.363,0,0,1-2.36-2.361,2.363,2.363,0,0,1,2.36-2.36,2.363,2.363,0,0,1,2.361,2.36A2.363,2.363,0,0,1-335.9,78.03Zm0-3.716a1.357,1.357,0,0,0-1.355,1.355,1.357,1.357,0,0,0,1.355,1.355,1.356,1.356,0,0,0,1.355-1.355A1.357,1.357,0,0,0-335.9,74.314Z" transform="translate(-2.687 0)" fill="#009fe3"/>
    <path id="Trazado_2523" data-name="Trazado 2523" d="M-324.381,85.657a2.363,2.363,0,0,1-2.36-2.361,2.363,2.363,0,0,1,2.36-2.36,2.363,2.363,0,0,1,2.36,2.36A2.363,2.363,0,0,1-324.381,85.657Zm0-3.715a1.356,1.356,0,0,0-1.355,1.354,1.356,1.356,0,0,0,1.355,1.355,1.356,1.356,0,0,0,1.355-1.355A1.356,1.356,0,0,0-324.381,81.942Z" transform="translate(-5.437 -1.821)" fill="#009fe3"/>
  </g>
</svg>