<svg xmlns="http://www.w3.org/2000/svg" width="24.88" height="25.288" viewBox="0 0 24.88 25.288">
    <g transform="translate(-2.344)">
        <g transform="translate(2.344)">
            <g transform="translate(0)">
                <path d="M90.8,22.432V17.946h.408v-.408A2.042,2.042,0,0,0,89.172,15.5H85.909V1.631a1.631,1.631,0,0,0-3.263,0V15.5H79.383a2.042,2.042,0,0,0-2.039,2.039v.408h.408v4.487a2.858,2.858,0,0,0,2.855,2.855h6.526v-.482a4.423,4.423,0,0,0,2.039.482h3.671v-.816A2.042,2.042,0,0,1,90.8,22.432Zm-7.342-20.8a.816.816,0,1,1,1.631,0V13.46H83.462Zm0,12.644h1.631V15.5H83.462Zm-4.079,2.039h9.789a1.226,1.226,0,0,1,1.154.816H78.23A1.226,1.226,0,0,1,79.383,16.315Zm1.224,8.157h0a2.042,2.042,0,0,1-2.039-2.039V17.946h2.039v4.487a2.846,2.846,0,0,0,.861,2.039Zm8.565,0h0c-1.574,0-2.855-.915-2.855-2.039H85.5a4.176,4.176,0,0,0,.468,2.039H83.462a2.042,2.042,0,0,1-2.039-2.039V17.946h6.526v1.631h.816V17.946h1.224v4.487a2.847,2.847,0,0,0,.859,2.039Z" transform="translate(-70.818 0)"/>
                <rect width="0.816" height="0.816" transform="translate(17.13 20.393)"/>
                <path d="M5.2,217.665H4.383a4.459,4.459,0,0,0,.487,2.033,5.693,5.693,0,0,1-1.711-4.072H2.344a6.533,6.533,0,0,0,6.526,6.526v-.816A3.675,3.675,0,0,1,5.2,217.665Z" transform="translate(-2.344 -196.864)"/>
                <rect width="2.039" height="0.816" transform="translate(22.84 24.472)"/>
                <path d="M44.532,216.849a1.224,1.224,0,1,0,1.224-1.224A1.225,1.225,0,0,0,44.532,216.849Zm1.631,0a.408.408,0,1,1-.408-.408A.409.409,0,0,1,46.163,216.849Z" transform="translate(-40.861 -196.863)"/>
                <path d="M27.413,139.2a1.631,1.631,0,1,0-1.631-1.631A1.633,1.633,0,0,0,27.413,139.2Zm0-2.447a.816.816,0,1,1-.816.816A.817.817,0,0,1,27.413,136.754Z" transform="translate(-23.743 -124.11)"/>
                <rect width="0.816" height="0.816" transform="translate(2.039 19.17)"/>
                <rect width="0.816" height="0.816" transform="translate(0 17.13)"/>
                <rect width="0.816" height="0.816" transform="translate(0 15.499)"/>
            </g>
        </g>
    </g>
</svg>