<svg xmlns="http://www.w3.org/2000/svg" width="--width--" height="--height--" viewBox="0 0 35.673 35.293">
    <g transform="rotate(--rotate-- 17.5 15.5)" style="transform-origin: 0 -2px">
        <g transform="translate(-408 -1906)" fill="--fill--" fill-rule="evenodd">
            --animate--
            <path d="M423.369,1910.79l-6.724,14.848a.539.539,0,0,0,.683.725l6.529-2.5,6.592,2.506a.539.539,0,0,0,.681-.727l-6.782-14.851A.538.538,0,0,0,423.369,1910.79Z" stroke="none"></path>
            <path d="M 423.8597106933594 1910.473754882812 C 423.6621398925781 1910.473754882812 423.464599609375 1910.579223632812 423.3691101074219 1910.790161132812 L 416.6451416015625
                    1925.638549804688 C 416.4759521484375 1926.01220703125 416.7650451660156 1926.400756835938 417.13232421875
                    1926.400756835938 C 417.196044921875 1926.400756835938 417.2620239257812 1926.38916015625 417.3284606933594
                    1926.363647460938 L 423.857666015625 1923.861206054688 L 430.449951171875 1926.366821289062 C 430.515869140625
                    1926.391845703125 430.5814208984375 1926.4033203125 430.6445922851562 1926.4033203125 C 431.0127563476562 1926.4033203125
                    431.3017883300781 1926.013427734375 431.1311950683594 1925.639770507812 L 424.3495483398438 1910.788696289062 C
                    424.2537231445312 1910.578735351562 424.0567016601562 1910.473754882812 423.8597106933594 1910.473754882812 M 423.8597106933594
                    1908.473754882812 L 423.8597412109375 1908.473754882812 L 423.8598022460938 1908.473754882812 C 424.8511047363281 1908.473754882812
                    425.757568359375 1909.056640625 426.1690979003906 1909.95849609375 L 432.9504699707031 1924.808959960938 C 433.3110656738281
                    1925.598754882812 433.246826171875 1926.505126953125 432.7786560058594 1927.233520507812 C 432.3078308105469 1927.966064453125 431.5100402832031
                    1928.4033203125 430.6445922851562 1928.4033203125 C 430.3358154296875 1928.4033203125 430.0314636230469 1928.347290039062 429.739990234375
                    1928.236572265625 L 423.8606262207031 1926.001953125 L 418.0442199707031 1928.231201171875 C 417.7509460449219 1928.343627929688 417.4439697265625
                    1928.400756835938 417.13232421875 1928.400756835938 C 416.2685241699219 1928.400756835938 415.4715881347656 1927.964721679688 415.0005187988281
                    1927.234252929688 C 414.5320434570312 1926.507934570312 414.4657592773438 1925.602905273438 414.8232116699219 1924.813598632812 L
                    421.5472106933594 1909.965087890625 C 421.9573364257812 1909.059204101562 422.8650817871094 1908.473754882812 423.8597106933594 1908.473754882812 Z" stroke="none" fill="rgba(255,255,255,0.6)"></path>
        </g>
    </g>
    <g transform="translate(-950 -744)">
        <g transform="translate(-292 248)">
            <path d="M-585.7,2084.861h-30.712l4.8-9.336h30.872Z" transform="translate(1856.997 -1553.598)" opacity="0.5"></path>
            <text transform="translate(1247 529)" fill="#fff" font-size="9" font-family="OpenSans, Open Sans"><tspan x="0" y="0">--number--</tspan></text>
        </g>
    </g></svg>