<svg version="1.1" id="Capa_1" xmlns="http://www.w3.org/2000/svg" xmlns:xlink="http://www.w3.org/1999/xlink" x="0px" y="0px"
	 viewBox="0 0 35.9 49.1" style="enable-background:new 0 0 35.9 49.1;" xml:space="preserve" width="--width--" height="--height--">
<style type="text/css">
	.st0{opacity:0.8;enable-background:new    ;}
	.st1{fill:#FFFFFF;}
	.st2{font-family:'OpenSans-SemiBold';}
	.st3{font-size:8px;}
	.st4{fill:url(#Path_2914-3_2_);}
	.st5{fill:url(#Path_2915-3_2_);}
	.st6{fill:url(#Path_2917-3_2_);}
	.st7{fill:url(#Path_2952-3_2_);}
	.st8{fill:#858585;}
	.st9{fill:url(#SVGID_1_);}
	.st10{fill:url(#SVGID_2_);}
	.st11{fill:#929DA9;}
	.st12{fill:#5A6978;}
	.st13{fill:#004E37;}
	.st14{fill:#F7941E;}
	.st15{fill:url(#Path_2909-3_2_);}
	.st16{fill:url(#Path_2911-3_2_);}
	.st17{fill:url(#Path_2912-3_2_);}
	.st18{fill:url(#Path_2913-3_2_);}
	.st19{fill:url(#Path_2916-3_2_);}
	.st20{fill:url(#Path_2919-3_2_);}
	.st21{fill:url(#Path_2953-3_2_);}
	.st22{fill:url(#Path_2954-3_2_);}
	.st23{fill:#B1B1B1;}
	.st24{fill:url(#Path_2956-3_2_);}
	.st25{fill:url(#Path_2957-3_2_);}
	.st26{fill:url(#Path_2959-3_2_);}
	.st27{fill:url(#Rectangle_1317-3_2_);}
	.st28{fill:#2E2E2E;}
	.st29{fill:#EFEFF0;}
	.st30{fill:#D7D8D9;}
	.st31{fill:#F2EEF0;}
</style>
<g id="Group_6551" transform="translate(-119 307)">
	<path id="Path_2788" class="st0" d="M149.9-258.2h-30.7l4.8-9.3h30.9L149.9-258.2z"/>
	<text transform="matrix(1 0 0 1 129.8515 -259.9671)" class="st1 st2 st3">--number--</text>
</g>
<g>

		<linearGradient id="Path_2914-3_2_" gradientUnits="userSpaceOnUse" x1="617.1599" y1="-388.0944" x2="622.0562" y2="-386.7573" gradientTransform="matrix(0.593 0 0 4.2 424.0389 3120.5901)">
		<stop  offset="0" style="stop-color:#363B39"/>
		<stop  offset="1" style="stop-color:#1B1C1C"/>
	</linearGradient>
	<path id="Path_2914-3_1_" class="st4" d="M23.1,9.7c0.2-1,0.2-2.2,0-3.2L23.6,6c0,0.5,0,2.4,0,3.1l0,0l0,0L23.1,9.7z"/>

		<linearGradient id="Path_2915-3_2_" gradientUnits="userSpaceOnUse" x1="788.0324" y1="-862.9653" x2="791.0854" y2="-862.5062" gradientTransform="matrix(0.579 0 0 2.913 371.4267 3130.697)">
		<stop  offset="0" style="stop-color:#000000"/>
		<stop  offset="1" style="stop-color:#3B3B3B"/>
	</linearGradient>
	<path id="Path_2915-3_1_" class="st5" d="M23.6,9.1L23.6,9.1c0-1,0-1.5,0-2c-0.2,0.1-0.3,0.2-0.4,0.3c0.1,0.7,0,1.5-0.1,2.2
		L23.6,9.1z"/>

		<linearGradient id="Path_2917-3_2_" gradientUnits="userSpaceOnUse" x1="10437.1172" y1="-2456.3484" x2="10446.0596" y2="-2456.3484" gradientTransform="matrix(0.12 0 0 1.276 -1353.3429 3142.5571)">
		<stop  offset="0" style="stop-color:#BDBFBE"/>
		<stop  offset="8.000000e-03" style="stop-color:#B9BBBA"/>
		<stop  offset="7.900000e-02" style="stop-color:#9FA1A0"/>
		<stop  offset="0.16" style="stop-color:#898B8A"/>
		<stop  offset="0.256" style="stop-color:#787A79"/>
		<stop  offset="0.374" style="stop-color:#6C6E6D"/>
		<stop  offset="0.54" style="stop-color:#656766"/>
		<stop  offset="1" style="stop-color:#646665"/>
	</linearGradient>
	<path id="Path_2917-3_1_" class="st6" d="M23.6,8.8C23.7,8.8,23.7,8.7,23.6,8.8L23.6,8.8l0.1-1c0-0.1-0.1-0.1-0.1-0.1l0,0V8.8z"/>
	<g id="Group_6539-3_1_" transform="translate(14.497 15.94)">
		<path id="Path_2934-3_1_" d="M10,6.5v0.6L9.3,7.7V7.1L10,6.5z"/>
		<path id="Path_2935-3_1_" d="M10,7.7v0.6L9.3,9V8.4L10,7.7z"/>
		<path id="Path_2936-3_1_" d="M9.3,0.4v-0.6L10-0.9v0.6L9.3,0.4z"/>
		<path id="Path_2937-3_1_" d="M10,5.2v0.6L9.3,6.5V5.9L10,5.2z"/>
		<path id="Path_2938-3_1_" d="M9.3,10.1V9.5L10,8.8v0.6L9.3,10.1z"/>
		<path id="Path_2939-3_1_" d="M10,0.3V1L9.3,1.7V1L10,0.3z"/>
		<path id="Path_2940-3_1_" d="M10,1.6v0.6L9.3,2.9V2.3L10,1.6z"/>
		<path id="Path_2941-3_1_" d="M10,4v0.6L9.3,5.3V4.7L10,4z"/>
		<path id="Path_2942-3_1_" d="M10,2.8v0.6L9.3,4.1V3.5L10,2.8z"/>
	</g>

		<radialGradient id="Path_2952-3_2_" cx="-3144.3015" cy="-1970.8251" r="0.2428" gradientTransform="matrix(4.751 -1.700000e-02 4.000000e-03 1.229 14969.9199 2371.925)" gradientUnits="userSpaceOnUse">
		<stop  offset="0" style="stop-color:#F1623A"/>
		<stop  offset="1" style="stop-color:#D51E0D"/>
	</radialGradient>
	<path id="Path_2952-3_1_" class="st7" d="M23.5,3.6h-0.2V2.8l0.2,0.1V3.6z"/>
	<rect id="Rectangle_1324-3_1_" x="24.6" y="29.4" class="st8" width="0.6" height="0.6"/>
	<rect id="Rectangle_1325-3_1_" x="24.7" y="30" width="0.4" height="3.7"/>
	<rect id="Rectangle_1326-3_1_" x="24.8" y="33.7" class="st8" width="0.3" height="0.9"/>
	<rect id="Rectangle_1327-3_1_" x="24.6" y="34.5" width="0.5" height="0.5"/>
	<g>
		<polygon id="Rectangle_1309-3_1_" points="12.6,11.7 12.6,9.7 23.6,9.7 23.6,11.6 		"/>
		<g>

				<linearGradient id="SVGID_1_" gradientUnits="userSpaceOnUse" x1="1325.3547" y1="2097.8582" x2="1346.9954" y2="2097.8582" gradientTransform="matrix(6.123234e-17 -1 1 6.123234e-17 -2079.6787 42.7788)">
				<stop  offset="0" style="stop-color:#D0D1D3"/>
				<stop  offset="2.300000e-02" style="stop-color:#DADBDD"/>
				<stop  offset="9.000000e-02" style="stop-color:#F5F5F5"/>
				<stop  offset="0.13" style="stop-color:#FFFFFF"/>
				<stop  offset="0.227" style="stop-color:#FFFFFF"/>
				<stop  offset="0.79" style="stop-color:#FFFFFF"/>
				<stop  offset="0.875" style="stop-color:#FCFCFC"/>
				<stop  offset="0.923" style="stop-color:#F4F4F5"/>
				<stop  offset="0.962" style="stop-color:#E6E7E8"/>
				<stop  offset="0.996" style="stop-color:#D3D3D5"/>
				<stop  offset="1" style="stop-color:#D0D1D3"/>
			</linearGradient>
			<path class="st9" d="M11.8,25l0.1,11.2l0,0c0,0.2,0.1,0.3,0.3,0.3h12l0,0c0.2,0,0.3-0.2,0.3-0.3l-0.1-21.4L11.8,25z"/>

				<linearGradient id="SVGID_2_" gradientUnits="userSpaceOnUse" x1="612.4056" y1="2097.4216" x2="622.0933" y2="2097.4216" gradientTransform="matrix(6.123234e-17 -1 1 6.123234e-17 -2079.6787 42.7788)">
				<stop  offset="0" style="stop-color:#D0D1D3"/>
				<stop  offset="2.300000e-02" style="stop-color:#DADBDD"/>
				<stop  offset="9.000000e-02" style="stop-color:#F5F5F5"/>
				<stop  offset="0.13" style="stop-color:#FFFFFF"/>
				<stop  offset="0.227" style="stop-color:#FFFFFF"/>
				<stop  offset="0.79" style="stop-color:#FFFFFF"/>
				<stop  offset="0.875" style="stop-color:#FCFCFC"/>
				<stop  offset="0.923" style="stop-color:#F4F4F5"/>
				<stop  offset="0.962" style="stop-color:#E6E7E8"/>
				<stop  offset="0.996" style="stop-color:#D3D3D5"/>
				<stop  offset="1" style="stop-color:#D0D1D3"/>
			</linearGradient>
			<path class="st10" d="M23.8,11.4H12c-0.2,0-0.3,0.2-0.3,0.3v9.3L23.8,11.4z"/>
		</g>
		<g>
			<polygon class="st11" points="22.9,12.1 12.4,12.1 12.5,20.7 			"/>
			<polygon class="st11" points="12.5,24.5 12.5,36.5 23.9,36.5 23.8,15.3 			"/>
		</g>

			<rect id="Rectangle_1314-3_1_" x="11.6" y="11.8" transform="matrix(1 -3.926861e-03 3.926861e-03 1 -5.272444e-02 4.595833e-02)" width="0.2" height="3.2"/>
		<polygon points="12.4,15.8 11.7,15.1 11.7,15.8 12.4,16.4 		"/>
		<polygon points="14.8,12.1 15.5,11.5 14.9,11.5 14.2,12.1 		"/>
		<polygon points="13.6,12.1 14.3,11.5 13.7,11.5 13,12.1 		"/>
		<polygon points="12.4,17 11.7,16.3 11.7,16.9 12.4,17.6 		"/>
		<polygon points="12.4,18.3 11.7,17.6 11.7,18.3 12.4,18.9 		"/>
		<polygon points="12.4,19.5 11.7,18.8 11.7,19.4 12.4,20.1 		"/>
		<polygon points="19.7,12.1 20.3,11.4 19.7,11.4 19.1,12.1 		"/>
		<polygon points="20.9,12.1 21.5,11.4 20.9,11.4 20.2,12.1 		"/>
		<polygon points="18.5,12.1 19.1,11.4 18.5,11.4 17.9,12.1 		"/>
		<polygon points="17.3,12.1 17.9,11.4 17.3,11.4 16.7,12.1 		"/>
		<polygon points="16,12.1 16.7,11.4 16,11.4 15.4,12.1 		"/>
		<g>
			<path class="st12" d="M17.5,16.5l0.8-1.5l0.3,0.5l1.4-1.1v-0.1c-0.1-0.1-0.2-0.2-0.3-0.3h-0.2h-2.1h-0.2c-0.3,0-0.4,0.1-0.6,0.2
				c-0.1,0.1-0.1,0.1-0.2,0.2l-0.8,1.5l1.5,0.9L17.5,16.5z"/>
			<path class="st12" d="M16.6,17.2l-0.3-0.6h-1.8L15,17l-0.4,0.8c-0.1,0.2-0.1,0.3-0.1,0.4c0,0.1,0,0.1,0.1,0.2l0.2,0.3L16.6,17.2z
				"/>
		</g>
		<path id="Path_2904-3_1_" class="st13" d="M23.5,3.2c0-1.5-2.3-2-3.6-2h-3.5c-1.4,0-3.6,0.5-3.6,2l-0.2,3.4h11L23.5,3.2z"/>
		<path id="Path_2905-3_1_" class="st14" d="M13.3,3.4C13.4,3.4,13.4,3.3,13.3,3.4c0.1-0.3,0.2-0.5,0.3-0.6c0,0,0-0.1,0-0.2l0,0
			c0,0-0.1,0-0.2,0l0,0C13.3,2.8,13.2,3,13.3,3.4C13.2,3.3,13.2,3.4,13.3,3.4L13.3,3.4z"/>
		<path id="Path_2906-3_1_" class="st14" d="M22.8,3.4C22.8,3.4,22.8,3.3,22.8,3.4c-0.1-0.3-0.2-0.5-0.3-0.6c0,0,0-0.1,0-0.2l0,0
			c0,0,0.1,0,0.2,0l0,0C22.8,2.8,22.9,3,22.8,3.4C23,3.3,22.9,3.3,22.8,3.4C22.9,3.4,22.9,3.4,22.8,3.4z"/>
		<path id="Path_2907-3_1_" class="st1" d="M14.6,1.6C14.6,1.6,14.7,1.5,14.6,1.6c-0.4-0.1-0.8,0.1-1,0.4c-0.3,0.5-0.1,0.5-0.1,0.5
			L14.6,1.6z"/>
		<path id="Path_2908-3_1_" class="st1" d="M21.5,1.6C21.5,1.6,21.5,1.5,21.5,1.6c0.4-0.1,0.8,0.1,1,0.4c0.3,0.5,0.1,0.5,0.1,0.5
			L21.5,1.6z"/>

			<linearGradient id="Path_2909-3_2_" gradientUnits="userSpaceOnUse" x1="-3522.3665" y1="-1420.1373" x2="-3522.3501" y2="-1417.1116" gradientTransform="matrix(7.6935 0 0 2.7843 27104.9688 3125.3335)">
			<stop  offset="0" style="stop-color:#DBDBDB"/>
			<stop  offset="1" style="stop-color:#000000"/>
		</linearGradient>
		<path id="Path_2909-3_1_" class="st15" d="M14.8,3.2c1,1.1,5.5,1.1,6.5,0c0.5-0.5-1.2-1.6-1.2-1.6H16C16,1.6,14.4,2.6,14.8,3.2z"
			/>
		<path id="Path_2910-3_1_" class="st12" d="M23.5,6L23.5,6l-0.4-3c-0.4-1.4-2-1.6-2.8-1.6h-4.6c-0.8,0-2.3,0.2-2.7,1.6l-0.4,2.9
			l0,0c-0.1,0.2-0.1,0.4-0.1,0.7c0,0.7,0,1.8,0,3.1c0,0.2,0.5,0.6,0.5,0.6h9.9c0,0,0.5-0.2,0.5-0.6c0-0.8,0-2.1,0-3.1
			C23.6,6.4,23.6,6.2,23.5,6z"/>

			<linearGradient id="Path_2911-3_2_" gradientUnits="userSpaceOnUse" x1="-3188.8875" y1="-17166.334" x2="-3188.0146" y2="-17166.334" gradientTransform="matrix(4.67 0 0 0.183 15741.2246 3142.9756)">
			<stop  offset="0" style="stop-color:#363B39"/>
			<stop  offset="1" style="stop-color:#0C0D0D"/>
		</linearGradient>
		<path id="Path_2911-3_1_" class="st16" d="M16,1.6h4.1l-0.3-0.2h-3.6L16,1.6z"/>

			<linearGradient id="Path_2912-3_2_" gradientUnits="userSpaceOnUse" x1="692.0237" y1="-369.1948" x2="696.4373" y2="-368.0244" gradientTransform="matrix(0.5885 0 0 4.293 395.0636 3119.9036)">
			<stop  offset="0" style="stop-color:#363B39"/>
			<stop  offset="1" style="stop-color:#1B1C1C"/>
		</linearGradient>
		<path id="Path_2912-3_1_" class="st17" d="M13.2,9.7l-0.5-0.5l0,0V9c0-1,0-2.6,0-3.1l0.4,0.5C13,7.5,13,8.6,13.2,9.7z"/>

			<linearGradient id="Path_2913-3_2_" gradientUnits="userSpaceOnUse" x1="546.8818" y1="-586.4395" x2="549.7158" y2="-585.3171" gradientTransform="matrix(0.595 0 0 2.908 419.518 3130.7786)">
			<stop  offset="0" style="stop-color:#3B3B3B"/>
			<stop  offset="1" style="stop-color:#000000"/>
		</linearGradient>
		<path id="Path_2913-3_1_" class="st18" d="M12.6,9.1L12.6,9.1c0-1,0-1.5,0-2c0.2,0.1,0.3,0.2,0.4,0.3c0,0.7,0,1.5,0.1,2.2
			L12.6,9.1z"/>

			<linearGradient id="Path_2916-3_2_" gradientUnits="userSpaceOnUse" x1="9930.8271" y1="-2456.4011" x2="9939.7598" y2="-2456.4011" gradientTransform="matrix(0.125 0 0 1.276 -1347.2495 3142.6245)">
			<stop  offset="0" style="stop-color:#BDBFBE"/>
			<stop  offset="8.000000e-03" style="stop-color:#B9BBBA"/>
			<stop  offset="7.900000e-02" style="stop-color:#9FA1A0"/>
			<stop  offset="0.16" style="stop-color:#898B8A"/>
			<stop  offset="0.256" style="stop-color:#787A79"/>
			<stop  offset="0.374" style="stop-color:#6C6E6D"/>
			<stop  offset="0.54" style="stop-color:#656766"/>
			<stop  offset="1" style="stop-color:#646665"/>
		</linearGradient>
		<path id="Path_2916-3_1_" class="st19" d="M12.6,8.8C12.5,8.8,12.5,8.7,12.6,8.8L12.6,8.8l-0.1-1c0-0.1,0.1-0.1,0.1-0.1l0,0V8.8z"
			/>
		<g id="Group_6535-3_1_" transform="translate(2.747 0.715)">
			<path id="Path_2918-3_1_" d="M15.4,4.7c1.6,0,3.1,0.2,4.6,0.5c0,0-0.2-2.6-0.2-3.1V2.1h-0.1c-1.4-0.6-3-1-4.5-1
				c-1.5,0-2.9,0.2-4.2,0.7H11v0.1c0,1.1-0.1,3.3-0.1,3.3C12.3,5,13.8,4.7,15.4,4.7z"/>

				<linearGradient id="Path_2919-3_2_" gradientUnits="userSpaceOnUse" x1="-3508.2625" y1="-668.5286" x2="-3507.3896" y2="-668.5286" gradientTransform="matrix(10.1741 0 0 4.6504 36537.2813 3112.0161)">
				<stop  offset="0" style="stop-color:#363B39"/>
				<stop  offset="1" style="stop-color:#0C0D0D"/>
			</linearGradient>
			<path id="Path_2919-3_1_" class="st20" d="M11,5.1c1.5-0.7,7.4-0.8,8.9-0.1c-0.1-1-0.1-2-0.1-3c-2.7-1.3-5.9-1.4-8.7-0.3
				C11,3,11,5.1,11,5.1z"/>
		</g>
		<g id="Group_6536-3_1_" transform="translate(3.417 0.755)">
			<path id="Path_2922-3_1_" d="M10.8,2c1.3-0.5,2.7-0.8,4.1-0.8c0-0.1,0-0.1,0-0.2c-1.4,0-2.9,0.3-4.2,0.8L10.8,2z"/>
			<path id="Path_2923-3_1_" d="M13.5,1.3c0,0.1,0.4,0.2,1,0.2c0.5,0,1-0.1,1-0.2c0-0.1-0.4-0.2-1-0.2S13.5,1.2,13.5,1.3z"/>
		</g>
		<path id="Path_2924-3_1_" class="st11" d="M22.7,10.2C22.9,9.4,23,8.5,23,7.6c0-0.8-0.2-1.7-0.3-2.4c-1.5-0.3-3-0.5-4.5-0.5
			c-1.5,0-3.1,0.2-4.5,0.5c-0.2,0.8-0.3,1.7-0.3,2.4c0,0.9,0.1,1.7,0.3,2.5L22.7,10.2z"/>

			<radialGradient id="Path_2953-3_2_" cx="-4882.98" cy="-1138.6902" r="0.2427" gradientTransform="matrix(-4.76 1.700000e-02 4.000000e-03 1.231 -23225.6836 1488.012)" gradientUnits="userSpaceOnUse">
			<stop  offset="0" style="stop-color:#F1623A"/>
			<stop  offset="1" style="stop-color:#D51E0D"/>
		</radialGradient>
		<path id="Path_2953-3_1_" class="st21" d="M12.6,3.7h0.2V2.8l-0.2,0.1V3.7z"/>
		<g id="Group_6543-3_1_" transform="translate(13.012 2.786)">
			<g id="Group_6541-3_1_" transform="translate(0.413 0.433)">

					<rect id="Rectangle_1315-3_1_" x="9.5" y="0.8" transform="matrix(0.9169 -0.3991 0.3991 0.9169 0.4479 3.984)" width="0.5" height="0.2"/>
			</g>

				<linearGradient id="Path_2954-3_2_" gradientUnits="userSpaceOnUse" x1="-311.4197" y1="-2357.7805" x2="-309.6689" y2="-2356.488" gradientTransform="matrix(0.5167 0 0 1.3454 150.4117 3134.8306)">
				<stop  offset="0" style="stop-color:#363B39"/>
				<stop  offset="1" style="stop-color:#1B1C1C"/>
			</linearGradient>
			<path id="Path_2954-3_1_" class="st22" d="M9.6,0.9c0,0,0.4,0.1,0.4,0.4S9.6,2.4,9.6,2C9.6,1.6,9.6,1.3,9.6,0.9z"/>
			<g id="Group_6542-3_1_" transform="translate(0.855)">
				<path id="Path_2955-3_1_" class="st23" d="M11,1.1C10.5,1,10.2,0.9,9.8,0.8C9.5,0.8,9.5,1,9.5,1.1l1.6,0.3
					C11.1,1.3,11.1,1.2,11,1.1z"/>

					<linearGradient id="Path_2956-3_2_" gradientUnits="userSpaceOnUse" x1="-2898.678" y1="-7353.7393" x2="-2897.7266" y2="-7353.7393" gradientTransform="matrix(1.8427 0 0 0.427 5210.1396 3141.3567)">
					<stop  offset="0" style="stop-color:#363B39"/>
					<stop  offset="1" style="stop-color:#1B1C1C"/>
				</linearGradient>
				<path id="Path_2956-3_1_" class="st24" d="M9.4,1.1c0,0.1,0,0.2,0,0.2L11,1.5V1.4L9.4,1.1z"/>
			</g>
		</g>
		<g id="Group_6546-3_1_" transform="translate(0.14 2.831)">
			<g id="Group_6544-3_1_" transform="translate(1.71 0.432)">

					<rect id="Rectangle_1316-3_1_" x="11.1" y="0.7" transform="matrix(0.3924 -0.9198 0.9198 0.3924 5.8935 10.8578)" width="0.2" height="0.5"/>
			</g>

				<linearGradient id="Path_2957-3_2_" gradientUnits="userSpaceOnUse" x1="886.0295" y1="-1523.433" x2="887.7822" y2="-1522.1404" gradientTransform="matrix(0.515 0 0 1.3453 119.6407 3134.8127)">
				<stop  offset="0" style="stop-color:#363B39"/>
				<stop  offset="1" style="stop-color:#1B1C1C"/>
			</linearGradient>
			<path id="Path_2957-3_1_" class="st25" d="M13.5,0.9c0,0-0.4,0.1-0.4,0.4s0.4,1,0.4,0.6C13.6,1.6,13.6,1.3,13.5,0.9z"/>
			<g id="Group_6545-3_1_" transform="translate(0)">
				<path id="Path_2958-3_1_" class="st23" d="M11.2,1.2C11.7,1,12,0.9,12.4,0.9c0.3,0,0.3,0.2,0.3,0.3l-1.6,0.3
					C11.1,1.4,11.2,1.2,11.2,1.2z"/>

					<linearGradient id="Path_2959-3_2_" gradientUnits="userSpaceOnUse" x1="-2307.9797" y1="-7136.1152" x2="-2307.0286" y2="-7136.1152" gradientTransform="matrix(1.8393 0 0 0.44 5096.2212 3141.2668)">
					<stop  offset="0" style="stop-color:#363B39"/>
					<stop  offset="1" style="stop-color:#1B1C1C"/>
				</linearGradient>
				<path id="Path_2959-3_1_" class="st26" d="M12.8,1.2c0,0.1,0,0.2,0,0.2l-1.6,0.2V1.5L12.8,1.2z"/>
			</g>
		</g>

			<linearGradient id="Rectangle_1317-3_2_" gradientUnits="userSpaceOnUse" x1="-3617.2454" y1="-5709.9604" x2="-3617.2454" y2="-5709.1104" gradientTransform="matrix(13.04 -5.216000e-02 2.116000e-03 0.529 47199.6484 2984.2068)">
			<stop  offset="0" style="stop-color:#FFFFFF"/>
			<stop  offset="1" style="stop-color:#C2C2C2"/>
		</linearGradient>
		<polygon id="Rectangle_1317-3_1_" class="st27" points="12.5,36.1 23.9,36 23.9,36.5 12.5,36.5 		"/>

			<rect id="Rectangle_1318-3_1_" x="12.5" y="36.2" transform="matrix(1 -3.647658e-03 3.647658e-03 1 -0.132 6.687140e-02)" class="st28" width="11.4" height="0.1"/>
		<rect id="Rectangle_1319-3_1_" x="12.5" y="27.6" width="11.4" height="8.9"/>
		<rect id="Rectangle_1320-3_1_" x="12.5" y="31.5" class="st1" width="11.4" height="1.9"/>
		<rect id="Rectangle_1321-3_1_" x="12.5" y="35.3" class="st1" width="11.4" height="1.2"/>
		<rect id="Rectangle_1322-3_1_" x="12.5" y="29.6" class="st29" width="11.4" height="1.9"/>
		<rect id="Rectangle_1323-3_1_" x="12.5" y="27.6" class="st30" width="11.4" height="1.9"/>
		<rect id="Rectangle_1328-3_1_" x="11.2" y="29.4" class="st8" width="0.6" height="0.6"/>
		<rect id="Rectangle_1329-3_1_" x="11.3" y="30" width="0.4" height="3.7"/>
		<rect id="Rectangle_1330-3_1_" x="11.4" y="33.7" class="st8" width="0.3" height="0.9"/>
		<rect id="Rectangle_1331-3_1_" x="11.2" y="34.5" width="0.5" height="0.5"/>
		<path id="Path_2960-3_1_" class="st31" d="M23.3,23.3L23.3,23.3v3.6H13.1l-0.3,0.3h11v-4.4L23.3,23.3z"/>

			<rect x="2.8" y="20.7" transform="matrix(0.7775 -0.6289 0.6289 0.7775 -10.0611 16.0085)" class="st11" width="29.5" height="3"/>
	</g>
</g>
</svg>