<svg version="1.1" id="Capa_1" xmlns="http://www.w3.org/2000/svg" xmlns:xlink="http://www.w3.org/1999/xlink" x="0px" y="0px"
	 viewBox="0 0 35.7 51.4" enable-background="new 0 0 35.7 51.4" xml:space="preserve" width="--width--" height="--height--">
<g transform="rotate(--rotate-- 17.5 15.5)" style="transform-origin: 0 6px">
<g id="Group_6552" transform="translate(1192.327 787.075)">
	<polygon id="Rectangle_1309" points="-1180.9,-777.1 -1168.3,-777.3 -1168.3,-774.8 -1180.9,-774.6 	"/>
	<path id="Path_2904" fill="#004E37" d="M-1168.6-784.6c0-1.7-2.6-2.3-4.1-2.3h-4c-1.6,0-4.1,0.6-4.1,2.3l-0.2,3.9h12.6
		L-1168.6-784.6z"/>
	<path id="Path_2905" fill="#F7941E" d="M-1180.1-784.4C-1180-784.4-1180-784.5-1180.1-784.4c0.1-0.3,0.2-0.6,0.4-0.7
		c0,0,0-0.1,0-0.2l0,0c0,0-0.1,0-0.2,0l0,0C-1180.1-785.1-1180.2-784.8-1180.1-784.4C-1180.3-784.4-1180.2-784.4-1180.1-784.4
		L-1180.1-784.4L-1180.1-784.4z"/>
	<path id="Path_2906" fill="#F7941E" d="M-1169.2-784.4C-1169.3-784.4-1169.3-784.5-1169.2-784.4c-0.1-0.3-0.2-0.6-0.4-0.7
		c0,0,0-0.1,0-0.2l0,0c0,0,0.1,0,0.2,0l0,0C-1169.2-785.1-1169.1-784.8-1169.2-784.4C-1169.1-784.5-1169.1-784.4-1169.2-784.4
		L-1169.2-784.4L-1169.2-784.4z"/>
	<path id="Path_2907" fill="#FFFFFF" d="M-1178.6-786.3C-1178.6-786.3-1178.5-786.4-1178.6-786.3c-0.5-0.1-0.9,0.1-1.1,0.5
		c-0.4,0.6-0.1,0.6-0.1,0.6L-1178.6-786.3z"/>
	<path id="Path_2908" fill="#FFFFFF" d="M-1170.8-786.4L-1170.8-786.4c0.5-0.1,0.9,0.1,1.1,0.5c0.4,0.6,0.1,0.6,0.1,0.6
		L-1170.8-786.4z"/>

		<linearGradient id="Path_2909_1_" gradientUnits="userSpaceOnUse" x1="-8045.4741" y1="395.1705" x2="-8045.4551" y2="398.6375" gradientTransform="matrix(7.6938 0 0 2.7849 60711.1563 -2838.563)">
		<stop  offset="0" style="stop-color:#DBDBDB"/>
		<stop  offset="1" style="stop-color:#000000"/>
	</linearGradient>
	<path id="Path_2909" fill="url(#Path_2909_1_)" d="M-1178.4-784.6c1.2,1.3,6.3,1.3,7.5,0c0.6-0.6-1.4-1.8-1.4-1.8h-4.7
		C-1177-786.3-1179-785.2-1178.4-784.6z"/>

		<linearGradient id="Path_2910_1_" gradientUnits="userSpaceOnUse" x1="-8245.4395" y1="205.632" x2="-8244.4395" y2="205.632" gradientTransform="matrix(12.634 0 0 10.0042 102864.9219 -2838.6743)">
		<stop  offset="0" style="stop-color:#2E9069"/>
		<stop  offset="4.000000e-02" style="stop-color:#1CA674"/>
		<stop  offset="9.700001e-02" style="stop-color:#07C181"/>
		<stop  offset="0.13" style="stop-color:#00CB86"/>
		<stop  offset="0.227" style="stop-color:#00CB86"/>
		<stop  offset="0.79" style="stop-color:#00CB86"/>
		<stop  offset="0.869" style="stop-color:#01C884"/>
		<stop  offset="0.914" style="stop-color:#08C080"/>
		<stop  offset="0.951" style="stop-color:#13B279"/>
		<stop  offset="0.982" style="stop-color:#229E70"/>
		<stop  offset="1" style="stop-color:#2E9069"/>
	</linearGradient>
	<path id="Path_2910" fill="url(#Path_2910_1_)" d="M-1168.4-781.3L-1168.4-781.3l-0.5-3.4c-0.5-1.6-2.3-1.8-3.2-1.8h-5.3
		c-0.9,0-2.6,0.2-3.1,1.8l-0.5,3.3l0,0c-0.1,0.2-0.1,0.5-0.1,0.8c0,0.8,0,2.1,0,3.5c0,0.2,0.6,0.7,0.6,0.7h11.4c0,0,0.6-0.2,0.6-0.7
		c0-0.9,0-2.4,0-3.5C-1168.3-780.9-1168.4-781.1-1168.4-781.3z"/>

		<linearGradient id="Path_2911_1_" gradientUnits="userSpaceOnUse" x1="-7522.9082" y1="11208.5566" x2="-7521.9082" y2="11208.5566" gradientTransform="matrix(4.6699 0 0 0.1831 34908.7344 -2838.7273)">
		<stop  offset="0" style="stop-color:#363B39"/>
		<stop  offset="1" style="stop-color:#0C0D0D"/>
	</linearGradient>
	<path id="Path_2911" fill="url(#Path_2911_1_)" d="M-1177-786.3h4.7l-0.3-0.2h-4.1L-1177-786.3z"/>

		<linearGradient id="Path_2912_1_" gradientUnits="userSpaceOnUse" x1="-587.9037" y1="886.1561" x2="-582.8467" y2="887.4971" gradientTransform="matrix(0.5874 0 0 4.293 67.5179 -2833.6331)">
		<stop  offset="0" style="stop-color:#363B39"/>
		<stop  offset="1" style="stop-color:#1B1C1C"/>
	</linearGradient>
	<path id="Path_2912" fill="url(#Path_2912_1_)" d="M-1180.4-777.1l-0.6-0.6l0,0v-0.1c0-1.1,0-3,0-3.6l0.5,0.6
		C-1180.5-779.6-1180.5-778.4-1180.4-777.1z"/>

		<linearGradient id="Path_2913_1_" gradientUnits="userSpaceOnUse" x1="-797.0208" y1="1264.3081" x2="-793.7738" y2="1265.5942" gradientTransform="matrix(0.595 0 0 2.9089 132.2963 -2832.262)">
		<stop  offset="0" style="stop-color:#3B3B3B"/>
		<stop  offset="1" style="stop-color:#000000"/>
	</linearGradient>
	<path id="Path_2913" fill="url(#Path_2913_1_)" d="M-1180.9-777.7L-1180.9-777.7c0-1.1,0-1.7,0-2.3c0.2,0.1,0.3,0.2,0.5,0.4
		c0,0.8,0,1.7,0.1,2.5L-1180.9-777.7z"/>

		<linearGradient id="Path_2914_1_" gradientUnits="userSpaceOnUse" x1="-704.2028" y1="893.2826" x2="-698.5928" y2="894.8146" gradientTransform="matrix(0.593 0 0 4.2029 127.3671 -2833.5864)">
		<stop  offset="0" style="stop-color:#363B39"/>
		<stop  offset="1" style="stop-color:#1B1C1C"/>
	</linearGradient>
	<path id="Path_2914" fill="url(#Path_2914_1_)" d="M-1168.9-777.2c0.2-1.2,0.2-2.5,0-3.7l0.6-0.5c0,0.6,0,2.7,0,3.6l0,0l0,0
		L-1168.9-777.2z"/>

		<linearGradient id="Path_2915_1_" gradientUnits="userSpaceOnUse" x1="-397.3406" y1="944.533" x2="-393.8426" y2="945.059" gradientTransform="matrix(0.5752 0 0 2.9121 -24.5554 -2832.302)">
		<stop  offset="0" style="stop-color:#000000"/>
		<stop  offset="1" style="stop-color:#3B3B3B"/>
	</linearGradient>
	<path id="Path_2915" fill="url(#Path_2915_1_)" d="M-1168.3-777.8L-1168.3-777.8c0-1.1,0-1.7,0-2.3c-0.2,0.1-0.3,0.2-0.5,0.4
		c0.1,0.8,0,1.7-0.1,2.5L-1168.3-777.8z"/>

		<linearGradient id="Path_2916_1_" gradientUnits="userSpaceOnUse" x1="21409.5703" y1="1607.444" x2="21419.8047" y2="1607.444" gradientTransform="matrix(0.1213 0 0 1.2771 -3909.8796 -2831.6069)">
		<stop  offset="0" style="stop-color:#BDBFBE"/>
		<stop  offset="8.000000e-03" style="stop-color:#B9BBBA"/>
		<stop  offset="7.900000e-02" style="stop-color:#9FA1A0"/>
		<stop  offset="0.16" style="stop-color:#898B8A"/>
		<stop  offset="0.256" style="stop-color:#787A79"/>
		<stop  offset="0.374" style="stop-color:#6C6E6D"/>
		<stop  offset="0.54" style="stop-color:#656766"/>
		<stop  offset="1" style="stop-color:#646665"/>
	</linearGradient>
	<path id="Path_2916" fill="url(#Path_2916_1_)" d="M-1180.9-778.1C-1181-778.1-1181-778.2-1180.9-778.1L-1180.9-778.1l-0.1-1.1
		c0-0.1,0.1-0.1,0.1-0.1l0,0V-778.1z"/>

		<linearGradient id="Path_2917_1_" gradientUnits="userSpaceOnUse" x1="21360.0234" y1="1608.6675" x2="21370.2695" y2="1608.6675" gradientTransform="matrix(0.1211 0 0 1.2761 -3898.9578 -2831.6611)">
		<stop  offset="0" style="stop-color:#BDBFBE"/>
		<stop  offset="8.000000e-03" style="stop-color:#B9BBBA"/>
		<stop  offset="7.900000e-02" style="stop-color:#9FA1A0"/>
		<stop  offset="0.16" style="stop-color:#898B8A"/>
		<stop  offset="0.256" style="stop-color:#787A79"/>
		<stop  offset="0.374" style="stop-color:#6C6E6D"/>
		<stop  offset="0.54" style="stop-color:#656766"/>
		<stop  offset="1" style="stop-color:#646665"/>
	</linearGradient>
	<path id="Path_2917" fill="url(#Path_2917_1_)" d="M-1168.3-778.2C-1168.2-778.2-1168.2-778.3-1168.3-778.2L-1168.3-778.2l0.1-1.1
		c0-0.1-0.1-0.1-0.1-0.1V-778.2z"/>
	<g id="Group_6535" transform="translate(2.747 0.715)">
		<path id="Path_2918" d="M-1177.4-782.7c1.8,0,3.5,0.2,5.3,0.6c0,0-0.2-3-0.2-3.5v-0.1h-0.1c-1.6-0.7-3.4-1.1-5.2-1.1
			c-1.7,0-3.3,0.2-4.8,0.8h-0.1v0.1c0,1.3-0.1,3.8-0.1,3.8C-1180.9-782.5-1179.1-782.7-1177.4-782.7z"/>

			<linearGradient id="Path_2919_1_" gradientUnits="userSpaceOnUse" x1="-8080.541" y1="441.7837" x2="-8079.541" y2="441.7837" gradientTransform="matrix(10.1741 0 0 4.6504 81984.0156 -2839.064)">
			<stop  offset="0" style="stop-color:#363B39"/>
			<stop  offset="1" style="stop-color:#0C0D0D"/>
		</linearGradient>
		<path id="Path_2919" fill="url(#Path_2919_1_)" d="M-1182.4-782.2c1.7-0.8,8.5-0.9,10.2-0.1c-0.1-1.1-0.1-2.3-0.1-3.4
			c-3.1-1.5-6.8-1.6-10-0.3C-1182.4-784.6-1182.5-782.2-1182.4-782.2z"/>
		<g id="Group_6534" transform="translate(1.19 0.119)">

				<linearGradient id="Path_2920_1_" gradientUnits="userSpaceOnUse" x1="-7941.7832" y1="494.3043" x2="-7940.7832" y2="494.3043" gradientTransform="matrix(7.77 0 0 4.1558 61479.625 -2839.0642)">
				<stop  offset="0" style="stop-color:#3B3B3B"/>
				<stop  offset="1" style="stop-color:#000000"/>
			</linearGradient>
			<path id="Path_2920" fill="url(#Path_2920_1_)" d="M-1182.6-786.3c0.1,1,0.2,2.6,0.4,3.6c0.3-0.1,6.8-0.2,7.1-0.1
				c0.1-0.9,0.2-2.4,0.3-3.4C-1177.3-787.1-1180.1-787.1-1182.6-786.3z"/>
		</g>
	</g>

		<linearGradient id="Path_2921_1_" gradientUnits="userSpaceOnUse" x1="-8216.8838" y1="71.7951" x2="-8215.8906" y2="71.7951" gradientTransform="matrix(14.7092 0 0 28.7842 120572.2656 -2827.304)">
		<stop  offset="0" style="stop-color:#D0D1D3"/>
		<stop  offset="2.300000e-02" style="stop-color:#DADBDD"/>
		<stop  offset="9.000000e-02" style="stop-color:#F5F5F5"/>
		<stop  offset="0.13" style="stop-color:#FFFFFF"/>
		<stop  offset="0.227" style="stop-color:#FFFFFF"/>
		<stop  offset="0.79" style="stop-color:#FFFFFF"/>
		<stop  offset="0.875" style="stop-color:#FCFCFC"/>
		<stop  offset="0.923" style="stop-color:#F4F4F5"/>
		<stop  offset="0.962" style="stop-color:#E6E7E8"/>
		<stop  offset="0.996" style="stop-color:#D3D3D5"/>
		<stop  offset="1" style="stop-color:#D0D1D3"/>
	</linearGradient>
	<path id="Path_2921" fill="url(#Path_2921_1_)" d="M-1167.6-746.4l-13.8,0.1c-0.2,0-0.4-0.2-0.4-0.4l0,0l-0.1-27.9
		c0-0.2,0.2-0.4,0.4-0.4l13.8-0.1c0.2,0,0.4,0.2,0.4,0.4l0.1,27.9C-1167.2-746.6-1167.4-746.4-1167.6-746.4L-1167.6-746.4z"/>
	<g id="Group_6536" transform="translate(3.417 0.755)">
		<path id="Path_2922" d="M-1182.5-785.8c1.5-0.6,3.1-0.9,4.7-0.9c0-0.1,0-0.1,0-0.2c-1.6,0-3.3,0.3-4.8,0.9
			C-1182.6-785.9-1182.5-785.9-1182.5-785.8z"/>
		<path id="Path_2923" d="M-1179.5-786.7c0,0.1,0.5,0.2,1.2,0.2s1.2-0.1,1.2-0.2s-0.5-0.2-1.2-0.2S-1179.5-786.8-1179.5-786.7z"/>
	</g>
	<path id="Path_2924" fill="#00CB86" d="M-1169.5-776.5c0.3-0.9,0.4-1.9,0.4-2.9c0-0.9-0.2-1.9-0.4-2.8c-1.7-0.4-3.4-0.6-5.2-0.6
		c-1.7,0-3.5,0.2-5.1,0.6c-0.2,0.9-0.4,1.9-0.4,2.8c0,1,0.1,2,0.4,2.9H-1169.5z"/>
	<g id="Group_6538" transform="translate(1.796 11.765)">
		<path id="Path_2925" d="M-1176.3-785.1l0.4,0.4l2.1-2.1h-0.7L-1176.3-785.1z"/>
		<path id="Path_2926" d="M-1171.1-786.9h-0.7l-1.7,1.7l0.4,0.4L-1171.1-786.9z"/>
		<path id="Path_2927" d="M-1182.2-785.4l1.4-1.4h-0.7l-1.1,1.1C-1182.4-785.7-1182.3-785.6-1182.2-785.4z"/>
		<path id="Path_2928" d="M-1174.9-785.1l0.4,0.4l2.1-2.1h-0.7L-1174.9-785.1z"/>
		<path id="Path_2929" d="M-1179.1-785.1l0.4,0.4l2.1-2.1h-0.7L-1179.1-785.1z"/>
		<path id="Path_2930" d="M-1181.8-785.1l0.4,0.4l2.1-2.1h-0.7L-1181.8-785.1z"/>
		<path id="Path_2931" d="M-1177.7-785.1l0.4,0.4l2.1-2.1h-0.7L-1177.7-785.1z"/>
		<path id="Path_2932" d="M-1170.4-786.9l-1.7,1.7l0.4,0.4l2.1-2.1L-1170.4-786.9z"/>
		<path id="Path_2933" d="M-1180.4-785.1l0.4,0.4l2.1-2.1h-0.7L-1180.4-785.1z"/>
	</g>
	<g id="Group_6539" transform="translate(14.497 15.94)">
		<path id="Path_2934" d="M-1181.8-778.5v0.7l-0.8,0.8v-0.7L-1181.8-778.5z"/>
		<path id="Path_2935" d="M-1181.8-777.1v0.7l-0.8,0.8v-0.7L-1181.8-777.1z"/>
		<path id="Path_2936" d="M-1182.6-785.4v-0.7l0.8-0.8v0.7L-1182.6-785.4z"/>
		<path id="Path_2937" d="M-1181.8-779.9v0.7l-0.8,0.8v-0.7L-1181.8-779.9z"/>
		<path id="Path_2938" d="M-1182.5-774.3v-0.7l0.8-0.8v0.7L-1182.5-774.3z"/>
		<path id="Path_2939" d="M-1181.8-785.5v0.7l-0.8,0.8v-0.7L-1181.8-785.5z"/>
		<path id="Path_2940" d="M-1181.8-784.1v0.7l-0.8,0.8v-0.7L-1181.8-784.1z"/>
		<path id="Path_2941" d="M-1181.8-781.3v0.7l-0.8,0.8v-0.7L-1181.8-781.3z"/>
		<path id="Path_2942" d="M-1181.8-782.7v0.7l-0.8,0.8v-0.7L-1181.8-782.7z"/>
	</g>
	<polygon id="Rectangle_1311" fill="#00CB86" points="-1181.1,-774.3 -1168.1,-774.3 -1168,-746.4 -1181,-746.3 	"/>
	<g id="Group_6540" transform="translate(0.678 15.994)">
		<path id="Path_2943" d="M-1182.6-778.5v0.7l0.8,0.7v-0.7L-1182.6-778.5z"/>
		<path id="Path_2944" d="M-1182.5-777.1v0.7l0.8,0.7v-0.7L-1182.5-777.1z"/>
		<path id="Path_2945" d="M-1181.8-785.4v-0.7l-0.8-0.7v0.7L-1181.8-785.4z"/>
		<path id="Path_2946" d="M-1182.6-779.9v0.7l0.8,0.7v-0.7L-1182.6-779.9z"/>
		<path id="Path_2947" d="M-1181.8-774.3v-0.7l-0.8-0.7v0.7L-1181.8-774.3z"/>
		<path id="Path_2948" d="M-1182.6-785.5v0.7l0.8,0.7v-0.7L-1182.6-785.5z"/>
		<path id="Path_2949" d="M-1182.6-784.1v0.7l0.8,0.7v-0.7L-1182.6-784.1z"/>
		<path id="Path_2950" d="M-1182.6-781.3v0.7l0.8,0.7v-0.7L-1182.6-781.3z"/>
		<path id="Path_2951" d="M-1182.6-782.7v0.7l0.8,0.7v-0.7L-1182.6-782.7z"/>
	</g>

		<rect id="Rectangle_1313" x="-1167.3" y="-774.8" transform="matrix(1 -3.054265e-03 3.054265e-03 1 2.3555 -3.5686)" width="0.2" height="3.7"/>

		<radialGradient id="Path_2952_1_" cx="-14826.8672" cy="4626.3379" r="0.2783" gradientTransform="matrix(4.751 -1.700000e-02 4.000000e-03 1.23 69255.3984 -6727.0034)" gradientUnits="userSpaceOnUse">
		<stop  offset="0" style="stop-color:#F1623A"/>
		<stop  offset="1" style="stop-color:#D51E0D"/>
	</radialGradient>
	<path id="Path_2952" fill="url(#Path_2952_1_)" d="M-1168.4-784h-0.2v-1l0.2,0.1V-784z"/>

		<radialGradient id="Path_2953_1_" cx="12695.5313" cy="4744.0195" r="0.2776" gradientTransform="matrix(-4.761 1.700000e-02 4.000000e-03 1.232 59243.6406 -6844.9619)" gradientUnits="userSpaceOnUse">
		<stop  offset="0" style="stop-color:#F1623A"/>
		<stop  offset="1" style="stop-color:#D51E0D"/>
	</radialGradient>
	<path id="Path_2953" fill="url(#Path_2953_1_)" d="M-1180.9-784h0.2v-1l-0.2,0.1V-784z"/>

		<rect id="Rectangle_1314" x="-1182.1" y="-774.7" transform="matrix(1 -3.926891e-03 3.926891e-03 1 3.026 -4.6476)" width="0.2" height="3.7"/>
	<g id="Group_6543" transform="translate(13.012 2.786)">
		<g id="Group_6541" transform="translate(0.413 0.433)">

				<rect id="Rectangle_1315" x="-1182.6" y="-786.7" transform="matrix(0.9169 -0.3991 0.3991 0.9169 215.7048 -537.2178)" width="0.6" height="0.2"/>
		</g>

			<linearGradient id="Path_2954_1_" gradientUnits="userSpaceOnUse" x1="-1343.7316" y1="1493.0225" x2="-1341.7255" y2="1494.5034" gradientTransform="matrix(0.5166 0 0 1.3452 -511.3922 -2838.9382)">
			<stop  offset="0" style="stop-color:#363B39"/>
			<stop  offset="1" style="stop-color:#1B1C1C"/>
		</linearGradient>
		<path id="Path_2954" fill="url(#Path_2954_1_)" d="M-1182.6-786.7c0,0,0.5,0.1,0.5,0.5s-0.5,1.2-0.5,0.7
			C-1182.6-785.9-1182.6-786.3-1182.6-786.7z"/>
		<g id="Group_6542" transform="translate(0.855)">

				<linearGradient id="Path_2955_1_" gradientUnits="userSpaceOnUse" x1="-6627.6514" y1="2937.5845" x2="-6626.6133" y2="2937.5845" gradientTransform="matrix(1.8479 0 0 0.6987 10924.6152 -2839.0808)">
				<stop  offset="0" style="stop-color:#F29D0A"/>
				<stop  offset="7.000001e-03" style="stop-color:#F19B09"/>
				<stop  offset="0.17" style="stop-color:#E98805"/>
				<stop  offset="0.358" style="stop-color:#E47A02"/>
				<stop  offset="0.59" style="stop-color:#E07200"/>
				<stop  offset="1" style="stop-color:#E07000"/>
			</linearGradient>
			<path id="Path_2955" fill="url(#Path_2955_1_)" d="M-1180.8-786.5c-0.5-0.2-0.9-0.3-1.4-0.4c-0.3,0-0.3,0.2-0.3,0.4l1.8,0.3
				C-1180.7-786.3-1180.8-786.4-1180.8-786.5z"/>

				<linearGradient id="Path_2956_1_" gradientUnits="userSpaceOnUse" x1="-6635.2656" y1="4806.4004" x2="-6634.1753" y2="4806.4004" gradientTransform="matrix(1.8442 0 0 0.427 10892.917 -2838.6733)">
				<stop  offset="0" style="stop-color:#363B39"/>
				<stop  offset="1" style="stop-color:#1B1C1C"/>
			</linearGradient>
			<path id="Path_2956" fill="url(#Path_2956_1_)" d="M-1182.6-786.5c0,0.1,0,0.2,0,0.2l1.8,0.2v-0.1L-1182.6-786.5z"/>
		</g>
	</g>
	<g id="Group_6546" transform="translate(0.14 2.831)">
		<g id="Group_6544" transform="translate(1.71 0.432)">

				<rect id="Rectangle_1316" x="-1182.4" y="-787.1" transform="matrix(0.3924 -0.9198 0.9198 0.3924 5.317 -1565.486)" width="0.2" height="0.6"/>
		</g>

			<linearGradient id="Path_2957_1_" gradientUnits="userSpaceOnUse" x1="18.5575" y1="2448.748" x2="20.5655" y2="2450.229" gradientTransform="matrix(0.5156 0 0 1.3455 -544.2829 -2838.9351)">
			<stop  offset="0" style="stop-color:#363B39"/>
			<stop  offset="1" style="stop-color:#1B1C1C"/>
		</linearGradient>
		<path id="Path_2957" fill="url(#Path_2957_1_)" d="M-1179.9-786.7c0,0-0.5,0.1-0.5,0.5s0.5,1.2,0.5,0.7
			S-1179.9-786.4-1179.9-786.7z"/>
		<g id="Group_6545" transform="translate(0)">

				<linearGradient id="Path_2958_1_" gradientUnits="userSpaceOnUse" x1="-5981.4614" y1="2905.1628" x2="-5980.4224" y2="2905.1628" gradientTransform="matrix(1.8442 0 0 0.7065 10791.6543 -2839.0879)">
				<stop  offset="0" style="stop-color:#F29D0A"/>
				<stop  offset="7.000001e-03" style="stop-color:#F19B09"/>
				<stop  offset="0.17" style="stop-color:#E98805"/>
				<stop  offset="0.358" style="stop-color:#E47A02"/>
				<stop  offset="0.59" style="stop-color:#E07200"/>
				<stop  offset="1" style="stop-color:#E07000"/>
			</linearGradient>
			<path id="Path_2958" fill="url(#Path_2958_1_)" d="M-1182.5-786.5c0.5-0.2,0.9-0.3,1.4-0.4c0.3,0,0.3,0.2,0.3,0.4l-1.8,0.3
				C-1182.6-786.3-1182.6-786.4-1182.5-786.5z"/>

				<linearGradient id="Path_2959_1_" gradientUnits="userSpaceOnUse" x1="-5968.626" y1="4665.4775" x2="-5967.5356" y2="4665.4775" gradientTransform="matrix(1.8433 0 0 0.4399 10783.8125 -2838.6841)">
				<stop  offset="0" style="stop-color:#363B39"/>
				<stop  offset="1" style="stop-color:#1B1C1C"/>
			</linearGradient>
			<path id="Path_2959" fill="url(#Path_2959_1_)" d="M-1180.7-786.5c0,0.1,0,0.2,0,0.2l-1.8,0.2v-0.1L-1180.7-786.5z"/>
		</g>
	</g>

		<linearGradient id="Rectangle_1317_1_" gradientUnits="userSpaceOnUse" x1="-8244.79" y1="4159.1816" x2="-8244.79" y2="4160.1558" gradientTransform="matrix(13.04 -5.216000e-02 2.116000e-03 0.529 106329.2891 -3244.1543)">
		<stop  offset="0" style="stop-color:#FFFFFF"/>
		<stop  offset="1" style="stop-color:#C2C2C2"/>
	</linearGradient>
	<polygon id="Rectangle_1317" fill="url(#Rectangle_1317_1_)" points="-1181,-747.1 -1168,-747.1 -1168,-746.6 -1181,-746.5 	"/>

		<rect id="Rectangle_1318" x="-1181.1" y="-747" transform="matrix(1 -3.647658e-03 3.647658e-03 1 2.7168 -4.2894)" fill="#2E2E2E" width="13.1" height="0.1"/>
	<rect id="Rectangle_1319" x="-1181.1" y="-756.5" width="13.1" height="10.2"/>
	<rect id="Rectangle_1320" x="-1181.1" y="-752.1" fill="#FFFFFF" width="13.1" height="2.2"/>
	<rect id="Rectangle_1321" x="-1181.1" y="-747.7" fill="#FFFFFF" width="13.1" height="1.4"/>
	<rect id="Rectangle_1322" x="-1181.1" y="-754.3" fill="#EFEFF0" width="13.1" height="2.2"/>
	<rect id="Rectangle_1323" x="-1181.1" y="-756.5" fill="#D7D8D9" width="13.1" height="2.2"/>
	<rect id="Rectangle_1324" x="-1167.2" y="-754.6" fill="#858585" width="0.7" height="0.7"/>
	<rect id="Rectangle_1325" x="-1167.2" y="-753.9" width="0.5" height="4.2"/>
	<rect id="Rectangle_1326" x="-1167.1" y="-749.6" fill="#858585" width="0.3" height="1"/>
	<rect id="Rectangle_1327" x="-1167.2" y="-748.6" width="0.6" height="0.6"/>
	<rect id="Rectangle_1328" x="-1182.6" y="-754.6" fill="#858585" width="0.7" height="0.7"/>
	<rect id="Rectangle_1329" x="-1182.4" y="-753.9" width="0.5" height="4.2"/>
	<rect id="Rectangle_1330" x="-1182.3" y="-749.6" fill="#858585" width="0.3" height="1"/>
	<rect id="Rectangle_1331" x="-1182.5" y="-748.6" width="0.6" height="0.6"/>
	<path id="Path_2960" fill="#00E3B0" d="M-1168.7-761.6L-1168.7-761.6v4.1h-11.7l-0.4,0.4h12.6v-4.9L-1168.7-761.6z"/>
	<path id="Path_2961" fill="#00AA6A" d="M-1180.4-757.5v-4.1h11.7l0.5-0.4h-12.6v4.9L-1180.4-757.5L-1180.4-757.5z"/>
	<g id="Group_6547" transform="translate(3.732 14.861)">
		<path id="Path_2962" fill-rule="evenodd" clip-rule="evenodd" fill="#009160" d="M-1173.8-782.4c0.1,0.3,0,0.5-0.2,0.7
			c0,0.1-0.1,0.1-0.1,0.1l0,0l-1.3,2c0,0.1-0.1,0.1-0.1,0.1c-0.1,0.1-0.3,0.1-0.4,0.1h-1.1v0.8l-1-1.8l1.1-1.9v0.9h1.5l-1.1-2
			l1.8-1.1l0.9,1.6C-1173.9-782.5-1173.8-782.5-1173.8-782.4z M-1181.1-784.8l0.9-1.7c0-0.1,0.1-0.1,0.2-0.2
			c0.2-0.2,0.4-0.3,0.7-0.2h0.2h2.4h0.2c0.1,0.1,0.3,0.1,0.3,0.3l0.5,0.9l0.7-0.4l-1,1.8l-2.2,0.1l0.8-0.5l-0.7-1.3l-1.1,2
			L-1181.1-784.8z M-1182.6-783.9h2.1l1.2,1.9l-0.8-0.5l-0.7,1.3h2.3v2.1h-1.8c-0.1,0-0.2,0-0.3-0.1c-0.2-0.1-0.4-0.3-0.6-0.5
			c0,0-0.1-0.1-0.1-0.2l-1.1-2.1c0-0.1,0-0.1-0.1-0.2c0-0.1,0-0.3,0.1-0.4l0.5-0.9L-1182.6-783.9z"/>
	</g>
</g>
</g>
<g id="Grupo_6553" transform="translate(-58 307)">
      <path id="Trazado_2788" d="M88.7-255.8H58l4.8-9.3h30.9L88.7-255.8z"  opacity="0.8"/>
      <text id="U27" transform="matrix(1 0 0 1 68.6039 -257.592)" fill="#fff" font-size="10" font-family="OpenSans, Open Sans"><tspan x="0" y="0">--number--</tspan></text>
    </g>

</svg>