<?xml version="1.0" encoding="utf-8"?>
<!-- Generator: Adobe Illustrator 24.1.2, SVG Export Plug-In . SVG Version: 6.00 Build 0)  -->
<svg version="1.1" id="Capa_1" xmlns="http://www.w3.org/2000/svg" xmlns:xlink="http://www.w3.org/1999/xlink" x="0px" y="0px"
	 viewBox="0 0 265 236" style="enable-background:new 0 0 265 236;" xml:space="preserve">
<style type="text/css">
	.st0{fill:#FED302;}
	.st1{fill:#32375C;}
</style>
<g>
	<path class="st0" d="M129.96,149.46c-1.57-0.74-2.91-1.83-4.34-2.79c-5.65-3.82-11.28-7.66-16.92-11.5
		c-5.08-3.45-10.15-6.89-15.23-10.33c-0.43-0.29-0.82-0.7-1.39-0.75c-0.33,0.3-0.2,0.68-0.2,1.02c-0.01,4.77-0.02,9.54,0.01,14.31
		c0,0.7-0.19,1.03-0.88,1.29c-6.17,2.26-12.31,4.58-18.47,6.86c-7.52,2.8-15.05,5.58-22.57,8.37c-0.3,0.11-0.59,0.29-0.94,0.19
		c0.16-0.21,0.1-0.46,0.1-0.69c0-20.01,0-40.01,0.01-60.02c0-0.53-0.16-0.86-0.61-1.17C38.6,87.52,28.7,80.78,18.79,74.06
		c-1.03-0.69-1.97-1.52-3.14-1.99l-0.08,0l-0.07,0.04c0-10.8,0-21.59,0-32.39c0.08,0.08,0.14,0.05,0.2-0.03
		c0.09,0.07,0.17,0.17,0.26,0.22c10.58,5.73,21.16,11.45,31.73,17.18c19.32,10.46,38.64,20.93,57.96,31.39
		c8.11,4.39,16.24,8.77,24.36,13.16c0,0-0.01-0.01-0.01-0.01c0,15.2,0.01,30.4,0.01,45.6C130,147.97,129.97,148.72,129.96,149.46z"
		/>
	<path class="st0" d="M210.16,17c0.42,0,0.83,0,1.25,0c-0.07,0.45,0.34,0.51,0.58,0.67c3.61,2.47,7.24,4.93,10.86,7.38
		c5.37,3.64,10.74,7.28,16.09,10.94c1.81,1.24,3.73,2.34,5.39,3.8c-0.27,0.13-0.54,0.24-0.8,0.38
		c-12.57,6.8-25.14,13.61-37.71,20.41c-13.59,7.36-27.19,14.72-40.78,22.08c-11.68,6.32-23.36,12.64-35.05,18.96l0.01,0.01
		c0-1.37-0.01-2.74-0.01-4.11c0-14.37,0-28.74,0-43.11c1.77-0.85,3.53-1.72,5.31-2.54c8.76-4.05,17.52-8.07,26.28-12.12
		c8.13-3.76,16.25-7.55,24.38-11.32c7.83-3.63,15.67-7.25,23.5-10.89C209.72,17.43,210.15,17.46,210.16,17z"/>
	<path class="st1" d="M130,54.42c0,14.37,0,28.74,0,43.11c0,1.37,0,2.74,0.01,4.11c-8.12-4.39-16.24-8.76-24.36-13.16
		C86.33,78.03,67.01,67.56,47.69,57.1c-10.58-5.73-21.16-11.45-31.73-17.18c-0.1-0.05-0.18-0.15-0.26-0.22
		c0.17-0.13,0.33-0.26,0.5-0.37c8.43-5.72,16.87-11.44,25.29-17.17c2.5-1.7,5.05-3.33,7.47-5.15c0.18,0,0.36,0,0.54,0
		c0.19,0.34,0.57,0.38,0.88,0.52c7.79,3.61,15.58,7.2,23.38,10.81c16.04,7.42,32.08,14.85,48.11,22.27
		C124.57,51.86,127.28,53.15,130,54.42z"/>
	<path class="st0" d="M244.51,126.15c-0.93,0.49-1.59,1.31-2.35,1.99c-5.44,4.84-10.84,9.73-16.26,14.6
		c-4.71,4.24-9.42,8.47-14.14,12.7c-0.24,0.21-0.54,0.36-0.82,0.53c-0.02-0.44-0.06-0.89-0.06-1.34c0-8.46,0-16.93,0-25.39
		c0-11.17,0.01-22.35-0.02-33.52c0-0.79,0.24-1.25,0.89-1.66c1.43-0.91,2.82-1.89,4.22-2.84c9.44-6.4,18.88-12.8,28.32-19.2
		c0.07-0.03,0.14-0.06,0.21-0.09C244.51,90,244.51,108.07,244.51,126.15z"/>
	<path class="st1" d="M15.49,163.72c3.55,0,7.09,0,10.73,0c1.98,4.76,3.98,9.54,6.04,14.5c2.05-4.92,4.04-9.7,6.04-14.49
		c3.58,0,7.11,0,10.69,0c0,9.79,0,19.52,0,29.31c-2.83,0-5.65,0-8.55,0c0-5.86,0-11.69,0-17.52c-0.06-0.01-0.12-0.02-0.18-0.04
		c-2.19,5.85-4.38,11.7-6.57,17.53c-0.08,0.03-0.14,0.06-0.2,0.07c-2.64,0.13-2.62,0.12-3.56-2.42c-1.89-5.09-3.8-10.18-5.81-15.26
		c0,5.86,0,11.72,0,17.67c-2.94,0-5.78,0-8.63,0C15.49,183.28,15.49,173.5,15.49,163.72z"/>
	<path class="st1" d="M244.51,193.07c-5.54,0.01-11.09,0.02-16.63,0.03c-2.5,0-5,0-7.57,0c0-3.05,0-6.04,0-9.1c3.03,0,6.08,0,9.24,0
		c0,1.13,0,2.28,0,3.46c1.92,0,3.73,0,5.6,0c0-1.51,0-3.02,0-4.62c-4.81-2.42-9.69-4.88-14.54-7.33c0-3.94,0-7.84,0-11.77
		c7.88,0,15.71,0,23.62,0c0,2.88,0,5.75,0,8.7c-2.75,0-5.53,0-8.4,0c0-0.99,0-1.99,0-3.05c-2.01,0-3.94,0-5.92,0
		c0,1.24,0,2.48,0,3.75c4.76,2.4,9.56,4.81,14.35,7.22c0.07,0.04,0.17,0.01,0.26,0.02C244.51,184.6,244.51,188.83,244.51,193.07z"/>
	<path class="st1" d="M87.24,214c-0.29-0.4-0.78-0.37-1.18-0.51c-2.93-1.04-4.73-3.58-4.56-6.53c0.1-1.74,0.96-3.1,2.27-4.19
		c2.66-2.23,6.86-2.46,9.76-0.55c4.3,2.84,3.94,8.49-0.67,10.87c-0.88,0.45-1.83,0.63-2.76,0.91C89.14,214,88.19,214,87.24,214z
		 M89.16,212.04c0.59,0.11,1.35-0.08,2.05-0.39c1.64-0.72,2.85-1.83,3.06-3.73c0.21-1.86-0.66-3.2-2.16-4.19
		c-2.2-1.44-5.38-1.08-7.22,0.79c-1.65,1.69-1.66,4.13-0.01,5.83C86,211.51,87.36,212.07,89.16,212.04z"/>
	<path class="st1" d="M33.2,214c0-4.31,0-8.63,0-12.98c1.92,0,3.84-0.19,5.7,0.04c2.71,0.34,3.61,2.81,2.08,5.34
		c1.48,1.06,2.24,2.47,1.77,4.31c-0.44,1.72-1.71,2.64-3.36,3.1c-0.16,0.05-0.37-0.03-0.46,0.18C37.02,214,35.11,214,33.2,214z
		 M35.38,212.04c1.05,0,2,0.03,2.96-0.01c1.23-0.05,2.27-1.04,2.33-2.16c0.06-1.12-0.91-2.21-2.16-2.31
		c-1.03-0.08-2.06-0.02-3.13-0.02C35.38,209.05,35.38,210.5,35.38,212.04z M35.39,205.59c0.97,0,1.86,0.03,2.75-0.01
		c0.84-0.04,1.48-0.68,1.46-1.39c-0.02-0.69-0.62-1.27-1.44-1.3c-0.91-0.04-1.82-0.01-2.77-0.01
		C35.39,203.79,35.39,204.64,35.39,205.59z"/>
	<path class="st1" d="M114.61,214c-0.56-0.16-1.12-0.3-1.67-0.49c-2.8-0.98-4.61-3.25-4.71-5.89c-0.1-2.52,1.53-4.9,4.26-6.02
		c2.53-1.04,5.06-0.94,7.46,0.44c2.11,1.21,3.41,3.02,3.37,5.5c-0.04,2.6-1.53,4.35-3.73,5.57c-0.84,0.46-1.77,0.59-2.66,0.89
		C116.16,214,115.39,214,114.61,214z M115.87,212.04c0.62,0.1,1.38-0.08,2.1-0.38c1.59-0.67,2.79-1.75,3.06-3.54
		c0.27-1.76-0.42-3.14-1.84-4.18c-1.96-1.43-4.81-1.44-6.77-0.04c-2.6,1.86-2.63,5.19-0.05,7.08
		C113.36,211.71,114.47,212.08,115.87,212.04z"/>
	<path class="st1" d="M235.93,214c-0.85-0.3-1.77-0.39-2.59-0.83c-2.47-1.33-4.05-3.26-3.82-6.18c0.22-2.78,1.97-4.51,4.44-5.5
		c3.19-1.28,6.91-0.39,9.08,2.03c0.73,0.81,1.14,1.78,1.48,2.79c0,0.78,0,1.55,0,2.33c-0.61,2.1-1.92,3.59-3.87,4.57
		c-0.82,0.41-1.72,0.53-2.57,0.8C237.36,214,236.64,214,235.93,214z M237.17,212.04c0.61,0.1,1.34-0.09,2.02-0.38
		c1.77-0.74,3.01-1.97,3.14-3.98c0.12-1.9-0.9-3.21-2.49-4.12c-1.94-1.11-4.64-0.89-6.39,0.48c-2.27,1.78-2.34,4.83-0.13,6.7
		C234.38,211.65,235.62,212.09,237.17,212.04z"/>
	<path class="st1" d="M124.27,214c0-4.31,0-8.63,0-13.06c2.21,0.06,4.32-0.15,6.41,0.11c1.87,0.24,3.29,1.82,3.37,3.52
		c0.07,1.61-1.17,3.14-2.98,3.67c-0.16,0.05-0.36,0.01-0.54,0.28c1,1.52,2.03,3.07,3.04,4.63c0.16,0.25,0.51,0.45,0.37,0.84
		c-0.78,0-1.55,0-2.33,0c-1.05-1.58-2.16-3.12-3.13-4.75c-0.5-0.84-1.08-0.94-1.88-0.71c0,1.85,0,3.66,0,5.47
		C125.83,214,125.05,214,124.27,214z M126.62,202.88c0,1.26,0,2.4,0,3.61c0.96,0,1.88,0,2.79,0c0.21,0,0.42,0.01,0.62-0.02
		c1.05-0.13,1.82-0.95,1.77-1.88c-0.04-0.88-0.85-1.67-1.85-1.71C128.86,202.85,127.77,202.88,126.62,202.88z"/>
	<path class="st1" d="M54.67,214c-0.02-2.71-0.04-5.42-0.06-8.12c-0.01-1.6,0-3.21,0-4.86c2.13,0,4.22-0.13,6.28,0.04
		c1.9,0.15,3.35,1.76,3.44,3.43c0.09,1.7-1.08,3.18-2.96,3.76c-0.16,0.05-0.33,0.1-0.57,0.17c1.21,1.9,2.38,3.75,3.54,5.59
		c-0.83,0-1.67,0-2.5,0c-1-1.54-2.06-3.05-2.99-4.63c-0.48-0.83-1.04-1.13-2.02-0.84c0,1.8,0,3.63,0,5.47
		C56.1,214,55.39,214,54.67,214z M56.86,206.47c1.22,0,2.36,0.05,3.48-0.02c0.98-0.06,1.73-0.85,1.77-1.7
		c0.04-0.85-0.68-1.76-1.61-1.83c-1.2-0.09-2.41-0.02-3.63-0.02C56.86,204.12,56.86,205.26,56.86,206.47z"/>
	<path class="st1" d="M146.82,214c0-4.31,0-8.63,0-12.99c3.24,0,6.41,0,9.64,0c0,0.59,0,1.17,0,1.83c-2.45,0-4.88,0-7.37,0
		c0,0.93,0,1.77,0,2.73c2.45,0,4.9,0,7.38,0c0,0.69,0,1.27,0,1.93c-2.47,0-4.91,0-7.39,0c0,1.53,0,2.97,0,4.5c2.44,0,4.87,0,7.33,0
		c0.18,0.71,0.1,1.36,0.08,2C153.26,214,150.04,214,146.82,214z"/>
	<path class="st1" d="M174.73,214c0-4.31,0-8.63,0-13c3.22,0,6.39,0,9.63,0c0.15,0.56,0.06,1.14,0.04,1.83c-2.47,0-4.92,0-7.42,0
		c0,0.96,0,1.81,0,2.73c2.47,0,4.89,0,7.39,0c0,0.65,0,1.22,0,1.92c-2.44,0-4.89,0-7.39,0c0,1.56,0,3,0,4.53c2.45,0,4.88,0,7.35,0
		c0.17,0.71,0.11,1.35,0.06,1.99C181.17,214,177.95,214,174.73,214z"/>
	<path class="st1" d="M43.94,214c0-4.31,0-8.63,0-13c3.2,0,6.37,0,9.6,0c0,0.57,0,1.15,0,1.82c-2.43,0-4.89,0-7.4,0
		c0,0.94,0,1.79,0,2.72c2.44,0,4.89,0,7.4,0c0,0.66,0,1.25,0,1.92c-2.44,0-4.89,0-7.4,0c0,1.54,0,2.98,0,4.52c2.42,0,4.88,0,7.37,0
		c0.17,0.72,0.05,1.37,0.09,2.01C50.38,214,47.16,214,43.94,214z"/>
	<path class="st1" d="M199.96,214c0-4.31,0-8.63,0-13.15c2.89,2.75,5.66,5.38,8.55,8.13c0-2.73,0-5.34,0-7.99c0.79,0,1.46,0,2.19,0
		c0,4.27,0,8.51,0,12.92c-2.86-2.71-5.61-5.32-8.59-8.15c0,2.92,0,5.58,0,8.24C201.39,214,200.68,214,199.96,214z"/>
	<path class="st1" d="M15.49,206.13c0.74-2.12,2.13-3.65,4.19-4.55c3.14-1.38,7.19-0.53,9.27,1.97c-0.45,0.52-1.1,0.75-1.65,1.17
		c-1.72-1.72-3.72-2.22-6.01-1.62c-2.25,0.6-3.82,2.65-3.62,4.7c0.22,2.19,2.29,4.07,4.62,4.24c1.92,0.14,3.59-0.36,4.96-1.8
		c0.61,0.33,1.19,0.67,1.73,1.16c-1.16,1.33-2.6,2.1-4.28,2.44c-0.16,0.03-0.37-0.05-0.46,0.18c-0.83,0-1.67,0-2.5,0
		c-0.1-0.21-0.3-0.14-0.46-0.17c-2.23-0.47-3.98-1.62-5.16-3.61c-0.24-0.4-0.26-0.91-0.64-1.23
		C15.49,208.04,15.49,207.08,15.49,206.13z"/>
	<path class="st1" d="M191.37,214c-0.61-0.43-1.37-0.47-2.03-0.81c-2.6-1.31-4.08-3.55-3.86-6.19c0.24-2.84,2.01-4.58,4.53-5.55
		c3.21-1.24,6.87-0.34,8.95,2.08c-0.46,0.5-1.09,0.76-1.68,1.18c-1.37-1.47-3.07-2.01-5.01-1.82c-2.52,0.25-5.1,2.42-4.51,5.41
		c0.37,1.88,2.46,3.6,4.6,3.73c1.89,0.12,3.53-0.38,4.89-1.8c0.61,0.29,1.17,0.66,1.75,1.12c-0.93,1.1-2.07,1.79-3.38,2.24
		c-0.35,0.12-0.76,0.06-1.03,0.4C193.52,214,192.45,214,191.37,214z"/>
	<path class="st1" d="M97.44,214c0.18-0.31,0.09-0.64,0.09-0.96c0.01-3.67,0-7.33,0-11c0-0.32,0-0.65,0-1.1
		c2.26,0.09,4.46-0.21,6.63,0.17c1.89,0.33,3.25,2.12,3.1,3.82c-0.17,1.91-1.95,3.45-4.1,3.51c-1.1,0.03-2.2,0.01-3.4,0.01
		c0,1.89,0,3.73,0,5.56C98.99,214,98.21,214,97.44,214z M99.79,206.48c1.2,0,2.31,0.05,3.41-0.01c1.06-0.06,1.79-0.82,1.81-1.74
		c0.02-0.92-0.71-1.76-1.73-1.82c-1.15-0.07-2.3-0.02-3.49-0.02C99.79,204.11,99.79,205.26,99.79,206.48z"/>
	<path class="st1" d="M221.43,214c-1.17-0.3-2.34-0.59-3.38-1.26c-4.02-2.57-4.14-7.65-0.22-10.4c3.26-2.29,8.26-1.73,10.69,1.25
		c-0.54,0.36-1.08,0.72-1.7,1.13c-1.36-1.42-3.03-1.99-4.98-1.83c-2.94,0.23-5.05,2.74-4.55,5.46c0.34,1.85,2.47,3.55,4.55,3.69
		c1.92,0.13,3.59-0.37,4.96-1.83c0.57,0.36,1.11,0.71,1.73,1.11c-1.13,1.37-2.54,2.09-4.15,2.49c-0.16,0.04-0.37-0.03-0.45,0.19
		C223.1,214,222.27,214,221.43,214z"/>
	<path class="st1" d="M74.35,214c-1.3-0.4-2.55-0.9-3.59-1.95c0.53-0.47,1.03-0.93,1.56-1.4c0.96,0.48,1.87,1.04,2.93,1.28
		c0.42,0.09,0.83,0.15,1.23,0.04c0.62-0.17,1.21-0.45,1.4-1.12c0.18-0.68-0.38-1.02-0.81-1.37c-1-0.8-2.18-1.33-3.3-1.94
		c-0.6-0.33-1.18-0.69-1.68-1.17c-1.34-1.28-1.28-3.06,0.11-4.29c1.64-1.45,6.26-1.9,8.22,0.77c-0.5,0.45-1,0.9-1.54,1.38
		c-0.64-0.46-1.2-1-1.95-1.24c-0.99-0.31-1.95-0.32-2.81,0.31c-0.89,0.64-0.87,1.47,0.01,2.11c0.97,0.7,2.07,1.16,3.11,1.73
		c0.73,0.41,1.44,0.85,2.06,1.41c1.29,1.17,1.34,2.73,0.16,4.02c-0.75,0.82-1.73,1.19-2.77,1.43C75.9,214,75.13,214,74.35,214z"/>
	<path class="st1" d="M139.3,214c0-3.69,0-7.37,0-11.13c-1.43,0-2.79,0-4.21,0c0-0.65,0-1.22,0-1.86c3.52,0,7.06,0,10.65,0
		c0.13,0.59,0.08,1.19,0.03,1.87c-1.42,0-2.78,0-4.23,0c0,1.86-0.02,3.64,0.01,5.41c0.03,1.9-0.12,3.8,0.08,5.7
		C140.85,214,140.08,214,139.3,214z"/>
	<path class="st1" d="M167.22,214c0-3.68,0-7.37,0-11.12c-1.44,0-2.79,0-4.21,0c0-0.65,0-1.22,0-1.86c3.51,0,7.04,0,10.64,0
		c0.15,0.55,0.08,1.13,0.04,1.82c-1.4,0-2.78,0-4.25,0c0,0.79,0.01,1.47,0,2.15c-0.04,3.01,0.1,6.01-0.08,9.02
		C168.65,214,167.93,214,167.22,214z"/>
	<path class="st1" d="M29.98,214c0-4.31,0-8.62,0-12.99c0.7,0,1.37,0,2.15,0c0,4.33,0,8.66,0,12.99C31.41,214,30.69,214,29.98,214z"
		/>
	<path class="st1" d="M211.77,214c0-4.31,0-8.63,0-13c0.72,0,1.39,0,2.15,0c0,4.33,0,8.66,0,13C213.2,214,212.49,214,211.77,214z"/>
	<path class="st1" d="M244.33,39.8c0.01,2.44,0.03,4.88,0.03,7.32c0,7.97,0,15.95,0,23.92c0,0.33-0.03,0.65-0.05,0.98
		c-9.44,6.4-18.88,12.8-28.32,19.2c-1.4,0.95-2.79,1.94-4.22,2.84c-0.65,0.41-0.89,0.87-0.89,1.66c0.03,11.17,0.02,22.35,0.02,33.52
		c0,8.46,0,16.93,0,25.39c0,0.45,0.04,0.89,0.06,1.34c-0.21,0.41-0.48,0.09-0.68,0.01c-7.26-2.69-14.52-5.39-21.78-8.1
		c-6.53-2.43-13.06-4.87-19.6-7.28c-0.57-0.21-0.77-0.46-0.77-1.07c0.03-4.83,0.02-9.65,0.02-14.48c0-0.38,0-0.77,0-1.32
		c-0.72,0.48-1.33,0.87-1.94,1.28c-11.88,8.07-23.77,16.14-35.65,24.21c-0.18,0.12-0.32,0.39-0.61,0.24
		c0.01-0.75,0.04-1.49,0.04-2.23c0-15.2,0-30.4-0.01-45.6c11.68-6.32,23.37-12.63,35.05-18.96c13.6-7.36,27.19-14.72,40.78-22.08
		c12.57-6.8,25.14-13.61,37.71-20.41C243.79,40.04,244.06,39.93,244.33,39.8z"/>
	<path class="st1" d="M15.64,72.07c1.17,0.47,2.12,1.3,3.14,1.99c9.92,6.72,19.82,13.45,29.74,20.17c0.46,0.31,0.61,0.64,0.61,1.17
		c-0.01,20.01-0.01,40.01-0.01,60.02c0,0.23,0.06,0.48-0.1,0.69c-10.91-9.79-21.81-19.59-32.73-29.37c-0.5-0.45-0.66-0.89-0.66-1.53
		C15.65,107.5,15.64,89.78,15.64,72.07z"/>
	<path class="st1" d="M189.67,163.72c8.87,0,17.68,0,26.54,0c0,9.77,0,19.51,0,29.31c-8.82,0-17.65,0-26.54,0
		C189.67,183.3,189.67,173.56,189.67,163.72z M206.95,187.45c0-6.05,0-12.06,0-18.08c-2.67,0-5.28,0-7.93,0c0,6.05,0,12.06,0,18.08
		C201.69,187.45,204.31,187.45,206.95,187.45z"/>
	<path class="st1" d="M125.17,163.74c0,9.77,0,19.51,0,29.3c-3.04,0-6.06,0-9.17,0c0-3.16,0-6.3,0-9.52c-2.63,0-5.17,0-7.79,0
		c0,3.14,0,6.29,0,9.5c-3.13,0-6.18,0-9.25,0c-0.19-0.24-0.09-0.55-0.09-0.84c-0.01-7.66,0-15.33-0.02-22.99
		c0-0.64,0.17-1.01,0.72-1.36c1.99-1.25,3.94-2.56,5.9-3.86c0.28-0.19,0.56-0.3,0.9-0.3c6.14,0.01,12.28,0.01,18.43,0.01
		C124.91,163.69,125.02,163.72,125.17,163.74z M115.94,169.38c-2.62,0-5.16,0-7.72,0c0,2.84,0,5.62,0,8.42c2.59,0,5.13,0,7.72,0
		C115.94,174.99,115.94,172.23,115.94,169.38z"/>
	<path class="st1" d="M185.4,163.75c0,6.21,0,12.4,0,18.69c-1.59,0-3.16,0-4.9,0c1.96,3.61,3.84,7.07,5.77,10.61
		c-3.18,0-6.23,0-9.32,0c-1.67-3.24-3.38-6.46-5-9.73c-0.34-0.69-0.73-0.91-1.43-0.83c-0.41,0.04-0.83,0.01-1.32,0.01
		c0,3.51,0,6.99,0,10.53c-3.13,0-6.18,0-9.26,0c-0.18-0.2-0.09-0.48-0.09-0.73c0-7.9,0-15.8-0.02-23.7c0-0.58,0.17-0.9,0.67-1.2
		c1.84-1.09,3.65-2.24,5.47-3.37c0.31-0.19,0.6-0.34,0.99-0.34c6.02,0.01,12.05,0.01,18.07,0.01
		C185.13,163.69,185.24,163.72,185.4,163.75z M176.11,169.38c-2.35,0-4.62,0-6.9,0c0,2.52,0,4.98,0,7.46c2.32,0,4.6,0,6.9,0
		C176.11,174.34,176.11,171.91,176.11,169.38z"/>
	<path class="st1" d="M142.78,177.73c4.31,0,8.56,0,12.87,0c0,5.12,0,10.21,0,15.33c-8.77,0-17.5,0-26.29,0c0-9.75,0-19.51,0-29.33
		c8.23,0,16.45,0,24.73,0c0,1.82,0,3.65,0,5.57c-5.11,0-10.22,0-15.4,0c0,6.09,0,12.09,0,18.14c2.57,0,5.11,0,7.73,0
		c0-1.45,0-2.89,0-4.39c-1.19,0-2.38,0-3.63,0C142.78,181.26,142.78,179.53,142.78,177.73z"/>
	<path class="st1" d="M94.9,193.07c-7.38,0-14.71,0-22.09,0c0-9.78,0-19.54,0-29.34c3.06,0,6.09,0,9.21,0c0,7.89,0,15.77,0,23.75
		c4.33,0,8.58,0,12.88,0C94.9,189.36,94.9,191.17,94.9,193.07z"/>
	<path class="st1" d="M56.48,169.27c-1.03,0-1.97,0-2.96,0c-0.02-0.23-0.05-0.4-0.05-0.57c0-1.63,0-3.27,0-4.96
		c5.15,0,10.23,0,15.35,0c0,1.84,0,3.64,0,5.54c-0.97,0-1.94,0-2.96,0c0,6.1,0,12.1,0,18.18c0.98,0,1.92,0,2.93,0
		c0,1.89,0,3.72,0,5.59c-5.06,0-10.12,0-15.25,0c0-1.82,0-3.65,0-5.53c0.97,0,1.91,0,2.94,0C56.48,181.43,56.48,175.41,56.48,169.27
		z"/>
	<path class="st1" d="M178.46,200.06c0.42-1.08,0.77-1.98,1.12-2.87c0.74,0,1.41,0,2.21,0c-0.5,0.9-0.92,1.75-1.43,2.53
		C179.92,200.37,179.22,199.87,178.46,200.06z"/>
</g>
</svg>
