<svg xmlns="http://www.w3.org/2000/svg" width="14.594" height="12.908" viewBox="0 0 14.594 12.908">
    <g id="Grupo_8300" data-name="Grupo 8300" transform="translate(-2021.597 -3242.146)">
        <path id="Trazado_4036" data-name="Trazado 4036" d="M2035.89,3251.818l-5.156-8.628a2.144,2.144,0,0,0-3.681,0l-5.156,8.628a2.138,2.138,0,0,0-.017,2.157,2.112,2.112,0,0,0,1.857,1.079h10.312a2.111,2.111,0,0,0,1.857-1.079A2.137,2.137,0,0,0,2035.89,3251.818Z" transform="translate(0)" fill="#e50027"/>
        <path id="Trazado_4037" data-name="Trazado 4037" d="M2123.039,3283.824v3.423a.856.856,0,0,1-1.712,0v-3.423a.856.856,0,1,1,1.712,0Z" transform="translate(-93.29 -38.185)" fill="#fff"/>
        <path id="Trazado_4038" data-name="Trazado 4038" d="M2115.984,3375.745a1.284,1.284,0,1,0,1.284,1.284A1.283,1.283,0,0,0,2115.984,3375.745Z" transform="translate(-87.09 -124.971)" fill="#fff"/>
    </g>
</svg>
