<svg xmlns="http://www.w3.org/2000/svg" width="24.342" height="18.889" viewBox="0 0 24.342 18.889">
    <g id="Grupo_8298" data-name="Grupo 8298" transform="translate(1.7)">
        <path id="Trazado_358" data-name="Trazado 358" d="M1.835,22.087a5.756,5.756,0,0,1,8.871,0,7.6,7.6,0,0,1,0,9.849L6.27,36.959,1.835,31.937a7.6,7.6,0,0,1,0-9.849Zm.783,9.132L6.27,35.394l3.653-4.175a6.524,6.524,0,0,0,0-8.48,4.782,4.782,0,0,0-7.305,0,6.524,6.524,0,0,0,0,8.48Zm0,0" transform="translate(4.576 -20)" fill="#929da9"/>
        <path id="Trazado_363" data-name="Trazado 363" d="M12.122,46.4h1.044a.522.522,0,0,1,0,1.044H12.122a.561.561,0,0,1-.522-.522.514.514,0,0,1,.522-.522Zm0,0" transform="translate(5.702 -28.555)" fill="#929da9"/>
        <path id="Trazado_2538" data-name="Trazado 2538" d="M12.122,46.4h1.044a.522.522,0,0,1,0,1.044H12.122a.561.561,0,0,1-.522-.522.514.514,0,0,1,.522-.522Zm0,0" transform="translate(8.955 -28.555)" fill="#929da9"/>
        <path id="Trazado_373" data-name="Trazado 373" d="M31.322,46.4h1.044a.522.522,0,0,1,0,1.044H31.322a.561.561,0,0,1-.522-.522.514.514,0,0,1,.522-.522Zm0,0" transform="translate(-26.021 -28.555)" fill="#929da9"/>
        <path id="Trazado_374" data-name="Trazado 374" d="M26.522,46.4h1.044a.522.522,0,0,1,0,1.044H26.522A.561.561,0,0,1,26,46.922a.514.514,0,0,1,.522-.522Zm0,0" transform="translate(-18.09 -28.555)" fill="#929da9"/>
        <path id="Trazado_377" data-name="Trazado 377" d="M36.222,46.4H37.2a.522.522,0,0,1,0,1.044h-.978v0a.522.522,0,0,1,0-1.044Zm0,0" transform="translate(-34.052 -28.555)" fill="#929da9"/>
        <path id="Trazado_2539" data-name="Trazado 2539" d="M36.222,46.4H37.2a.522.522,0,0,1,0,1.044h-.978v0a.522.522,0,0,1,0-1.044Zm0,0" transform="translate(-37.4 -28.555)" fill="#929da9"/>
        <path id="Trazado_381" data-name="Trazado 381" d="M16.922,46.4h1.044a.522.522,0,0,1,0,1.044H16.922a.561.561,0,0,1-.522-.522.514.514,0,0,1,.522-.522Zm0,0" transform="translate(-2.228 -28.555)" fill="#929da9"/>
        <path id="Trazado_384" data-name="Trazado 384" d="M21.722,46.4h1.044a.522.522,0,0,1,0,1.044H21.722a.561.561,0,0,1-.522-.522.514.514,0,0,1,.522-.522Zm0,0" transform="translate(-10.159 -28.555)" fill="#929da9"/>
        <path id="Trazado_387" data-name="Trazado 387" d="M7.931,24.8a3.131,3.131,0,0,1,0,6.262,3.131,3.131,0,0,1,0-6.262Zm0,5.218a2.087,2.087,0,1,0-2.087-2.087,2.061,2.061,0,0,0,2.087,2.087Zm0,0" transform="translate(2.916 -21.044)" fill="#929da9"/>
    </g>
</svg>
