<svg xmlns="http://www.w3.org/2000/svg" width="34" height="32.042" viewBox="0 0 34 32.042">
    <text id="Info_Ruta" data-name="Info Ruta" transform="translate(17 30.042)" fill="#5a6978" font-size="8" font-family="OpenSans, Open Sans"><tspan x="-16.945" y="0">Info Ruta</tspan></text>
    <g id="Grupo_6389" data-name="Grupo 6389" transform="translate(-627.773 -338)">
        <path id="Trazado_2534" data-name="Trazado 2534" d="M644.647,355.279a8.64,8.64,0,1,0-8.647-8.64,8.642,8.642,0,0,0,8.647,8.64Zm0-16.413a7.988,7.988,0,0,1,7.713,7.773,7.714,7.714,0,0,1-15.428,0,7.99,7.99,0,0,1,7.715-7.773Zm0,0" transform="translate(0 0)" fill="#5a6978"/>
        <path id="Trazado_2535" data-name="Trazado 2535" d="M672.055,378.665a.614.614,0,0,0,0,1.228h4.031a.614.614,0,1,0,0-1.228h-1.408v-5.409a.607.607,0,0,0-.614-.615h-2.008a.614.614,0,0,0,0,1.228h1.408v4.8Zm0,0" transform="translate(-28.867 -28.218)" fill="#5a6978"/>
        <path id="Trazado_2536" data-name="Trazado 2536" d="M677.74,357.63a.989.989,0,1,1-.989-.989.989.989,0,0,1,.989.989Zm0,0" transform="translate(-32.371 -15.173)" fill="#5a6978"/>
    </g>
</svg>
